<svg version="1.1" xmlns="http://www.w3.org/2000/svg" viewBox="0 0 3074.8984425539006 1114.2493286132803" width="3074.8984425539006" height="1114.2493286132803">
  <!-- svg-source:excalidraw -->
  
  <defs>
    <style>
      @font-face {
        font-family: "Virgil";
        src: url("https://excalidraw.com/Virgil.woff2");
      }
      @font-face {
        font-family: "Cascadia";
        src: url("https://excalidraw.com/Cascadia.woff2");
      }
    </style>
  </defs>
  <rect x="0" y="0" width="3074.8984425539006" height="1114.2493286132803" fill="#ffffff"></rect><g stroke-linecap="round" transform="translate(556.52812412807 118.24296351841411) rotate(0 234.50000000000003 274.5)"><path d="M0.86 0.63 C102.9 -2.15, 204 -2.86, 468.83 -0.2 M0.18 -0.12 C125.57 0.71, 251.22 0.44, 468.86 -0.36 M468.45 -0.51 C470.28 141.95, 469.65 284.14, 469.06 548.58 M468.96 -0.39 C467.76 203.42, 467.65 406.54, 469.3 549.29 M469.56 549.46 C346.52 549.14, 225.33 548.46, -0.34 548.74 M468.87 549.44 C361.02 550.97, 252.9 551.09, -0.1 548.98 M0.42 548.71 C-2.33 333.39, -1.52 118.78, -0.74 0.23 M0.21 549.02 C-0.26 386.18, 0.07 222.27, -0.09 0.39" stroke="#000000" stroke-width="1" fill="none"></path></g><g transform="translate(561.52812412807 370.7429635184141) rotate(0 229.50000000000003 22)"><text x="229.5" y="35" font-family="Cascadia, Segoe UI Emoji" font-size="36px" fill="#000000" text-anchor="middle" style="white-space: pre;" direction="ltr">main</text></g><g stroke-linecap="round" transform="translate(1169.0179268973225 232.3600769042959) rotate(0 133.93539428710938 88.2327880859375)"><path d="M1.48 1.26 C59.67 -0.34, 122.25 0.83, 266.36 -0.95 M-0.41 -0.62 C82.5 2.23, 163.01 1.65, 267.21 -0.47 M268.16 1.39 C269.24 33.76, 266.27 70.27, 268.83 177.97 M267.36 -0.41 C268.89 54.4, 269.4 109.65, 268.03 175.76 M267.67 175.66 C166.46 175.17, 64 175.92, -0.08 175.34 M267.1 176.96 C181.38 179.17, 93.59 179.22, -0.11 175.87 M0.98 178.4 C-0.1 121.16, 1.48 68.9, -1.77 0.41 M0.62 175.62 C0.81 110.13, -0.33 43.55, -0.66 0.03" stroke="#000000" stroke-width="1" fill="none"></path></g><g stroke-linecap="round"><g transform="translate(1439.948224748885 246.96829223632716) rotate(0 6.068461476005609 0.009951459243893623)"><path d="M0.5 0.49 C2.65 0.46, 11.06 -0.45, 12.84 -0.47 M-0.7 -0.29 C1.39 -0.2, 10.63 0.15, 12.42 0.45" stroke="#000000" stroke-width="1" fill="none"></path></g></g><g stroke-linecap="round"><g transform="translate(1455.2364937918537 248.86828613281153) rotate(0 -0.10148283067155717 89.20886304366401)"><path d="M0.65 0.27 C0.65 30.19, 0 149.39, -0.26 179.05 M-0.47 -0.64 C-0.55 28.98, -0.65 147.31, -0.85 177.34" stroke="#000000" stroke-width="1" fill="none"></path></g></g><g stroke-linecap="round"><g transform="translate(1455.8103463309162 429.26940917968653) rotate(0 -131.65182363036092 0.2944912099533781)"><path d="M0.81 -1.09 C-43.24 -1.05, -219.44 -0.24, -263.33 0.04 M-0.22 0.95 C-44.49 1.21, -220.37 1.97, -264.11 1.56" stroke="#000000" stroke-width="1" fill="none"></path></g></g><g stroke-linecap="round"><g transform="translate(1190.7716500418537 428.39785766601466) rotate(0 -0.17217738587112308 -9.802391077205527)"><path d="M0.39 -0.05 C0.56 -3.31, 0.52 -16.57, 0.49 -19.55 M-0.86 -1.12 C-0.83 -4.29, -0.55 -15.46, -0.54 -18.63" stroke="#000000" stroke-width="1" fill="none"></path></g></g><g transform="translate(1217.0204293387287 258.99999999999903) rotate(0 59 12)"><text x="0" y="20" font-family="Cascadia, Segoe UI Emoji" font-size="20px" fill="#000000" text-anchor="start" style="white-space: pre;" direction="ltr">Replicator</text></g><g stroke-linecap="round" transform="translate(1165.6853463309162 486.21003941127134) rotate(0 144.09954833984375 70.0921630859375)"><path d="M-0.93 0.98 C87.61 1.69, 176.66 2.19, 287.21 0.91 M-0.29 0.63 C99.37 -1.53, 200.27 -0.63, 288.09 0 M287.28 -1.42 C285.49 33.46, 287.77 64.74, 288.52 138.44 M288.76 -0.49 C288.55 54.09, 288.38 107.14, 287.2 139.32 M289.36 140.05 C198.85 142.5, 110.17 142.68, -1.4 139.84 M288.01 140.46 C225.71 142.84, 163.59 142.25, 0.16 140.57 M-1.23 138.52 C-2.71 95.28, -1.31 50.02, -1.68 1.89 M0.55 140.1 C-0.21 93.15, 0.78 43.94, 0 -0.26" stroke="#000000" stroke-width="1" fill="none"></path></g><g transform="translate(1170.6853463309162 544.3022024972088) rotate(0 139 12)"><text x="139" y="20" font-family="Cascadia, Segoe UI Emoji" font-size="20px" fill="#000000" text-anchor="middle" style="white-space: pre;" direction="ltr">Tick</text></g><g stroke-linecap="round" transform="translate(1166.322522844588 720.6646118164053) rotate(0 144.09954833984375 70.0921630859375)"><path d="M0.27 0.23 C104.74 -0.08, 209.55 -0.82, 287.34 0.29 M0.74 0.18 C60.76 0.62, 121.26 1.23, 287.76 -0.61 M287.72 -1.54 C286.88 32.55, 289.05 69.4, 287.1 138.91 M288.12 0.75 C289.07 49.23, 288.76 99.5, 288.17 139.73 M288.55 138.89 C222.6 139.84, 156.53 139.07, 1.05 139.01 M288.91 139.83 C208.37 140.1, 127.65 138.96, 0.42 140.07 M-1.48 139.38 C0.54 99.06, -1.21 58.84, -2 0.64 M0.61 140.44 C1.13 85.96, 1.88 33.81, 0.97 0.27" stroke="#000000" stroke-width="1" fill="none"></path></g><g transform="translate(1171.322522844588 778.7567749023428) rotate(0 139 12)"><text x="139" y="20" font-family="Cascadia, Segoe UI Emoji" font-size="20px" fill="#000000" text-anchor="middle" style="white-space: pre;" direction="ltr">Applier</text></g><g stroke-linecap="round"><g transform="translate(1457.87669154576 554.5895389271915) rotate(0 38.280642357738714 0.2761966616879761)"><path d="M-0.05 1.15 C12.98 1.23, 65.13 -0.46, 78.1 -0.6 M-1.54 0.71 C11.33 1.07, 64.06 1.2, 77.11 0.8" stroke="#000000" stroke-width="1" fill="none"></path></g><g transform="translate(1457.87669154576 554.5895389271915) rotate(0 38.280642357738714 0.2761966616879761)"><path d="M50.95 11.26 C56.97 7.59, 66.77 5.9, 76.79 1.62 M48.14 11.39 C59.18 7.67, 70.86 4, 76.63 1.39" stroke="#000000" stroke-width="1" fill="none"></path></g><g transform="translate(1457.87669154576 554.5895389271915) rotate(0 38.280642357738714 0.2761966616879761)"><path d="M50.73 -9.26 C56.62 -6.89, 66.49 -2.52, 76.79 1.62 M47.91 -9.13 C58.97 -5.02, 70.73 -0.87, 76.63 1.39" stroke="#000000" stroke-width="1" fill="none"></path></g></g><g stroke-linecap="round" transform="translate(1537.3589913504475 499.4297485351553) rotate(0 139.18026733398438 54.29771423339844)"><path d="M0.79 1.1 C60.22 0.93, 120.2 2.12, 278.31 -0.86 M0 -0.56 C78.83 0.08, 159.11 -0.81, 278.89 0.05 M276.97 -0.42 C278.77 35.01, 278.26 68.44, 280.14 109.05 M277.83 0.65 C277.05 35.27, 278.75 69.67, 279.1 108.17 M278.38 109.15 C167.89 110, 57.22 108.9, -1.33 108.57 M278.77 108.46 C192.94 109.89, 106.54 109.19, -0.62 108.61 M1.11 108.64 C-0.31 68.32, 1.92 25.24, 0.7 0.59 M0.48 108.62 C0.01 70.58, -0.85 30.54, 0.44 -0.93" stroke="#000000" stroke-width="1" fill="none"></path></g><g transform="translate(1573.0204293387287 540.1170349121085) rotate(0 106 12)"><text x="0" y="20" font-family="Cascadia, Segoe UI Emoji" font-size="20px" fill="#000000" text-anchor="start" style="white-space: pre;" direction="ltr">BroadcastHeartbeat</text></g><g stroke-linecap="round" transform="translate(1885.0955636160725 499.0664672851553) rotate(0 143.95431518554688 56.707061767578125)"><path d="M-0.49 -1.14 C106.28 1.91, 213.36 2.6, 287.09 -0.26 M-0.23 0.05 C71.18 0.88, 142.4 0.64, 288.09 0.56 M286.34 1.74 C287.56 37.52, 288.62 73.58, 287.7 113.8 M287.75 -0.11 C289.47 42.16, 288.41 82.65, 288.06 113.45 M287.92 114.84 C201 115.22, 113.69 114.53, 1.38 113.17 M287.45 113.55 C201.08 114.56, 113.69 114.3, -0.5 114.01 M-1.32 111.6 C0.21 69.42, -2.18 26.03, 0.54 -1.66 M0.62 113.4 C0.2 83.66, 1.81 52.68, 0.98 -0.77" stroke="#000000" stroke-width="1" fill="none"></path></g><g transform="translate(1934.5447823660725 541.5393676757803) rotate(0 100 12)"><text x="0" y="20" font-family="Cascadia, Segoe UI Emoji" font-size="20px" fill="#000000" text-anchor="start" style="white-space: pre;" direction="ltr">replicateOneRound</text></g><g stroke-linecap="round"><g transform="translate(1820.1710030691975 550.0534667968741) rotate(0 30.649675313122543 0.576347260162521)"><path d="M0.27 -0.8 C10.84 -0.74, 52.08 0.41, 62.35 0.93 M-1.05 1.39 C9.53 1.52, 51.39 2.12, 61.79 1.92" stroke="#000000" stroke-width="1" fill="none"></path></g><g transform="translate(1820.1710030691975 550.0534667968741) rotate(0 30.649675313122543 0.576347260162521)"><path d="M32.26 13.39 C37.65 10.47, 45.86 7.9, 61.02 1.27 M34.18 13.13 C40.12 9.9, 47.77 6.86, 61.77 1.26" stroke="#000000" stroke-width="1" fill="none"></path></g><g transform="translate(1820.1710030691975 550.0534667968741) rotate(0 30.649675313122543 0.576347260162521)"><path d="M32.26 -7.13 C37.74 -5.79, 45.95 -4.1, 61.02 1.27 M34.18 -7.39 C40.28 -5.28, 47.93 -2.97, 61.77 1.26" stroke="#000000" stroke-width="1" fill="none"></path></g></g><g stroke-linecap="round" transform="translate(2230.394513811385 496.73376464843653) rotate(0 174.43649291992188 58.211212158203125)"><path d="M1.01 0.36 C84.8 1.52, 169.1 2.8, 348.76 -1.23 M0.49 0.35 C129.83 -0.56, 260.06 -1.01, 349.09 0.5 M348.71 -1.91 C349.38 47.57, 347.69 93.77, 347.58 118.19 M349.33 -0.31 C349.48 24.68, 348.9 49.54, 348.94 115.53 M349.76 117.44 C270.92 115.58, 194.3 117.54, -0.75 117.38 M349.29 116.39 C232.18 115.23, 115.15 114.64, 0.09 116.69 M0.39 117.59 C-1.78 83.26, -2.05 52.27, 0.38 -0.43 M-0.02 116.39 C0.41 93.8, -0.3 69.72, -0.23 0.58" stroke="#000000" stroke-width="1" fill="none"></path></g><g transform="translate(2247.4144723074787 542.0821533203116) rotate(0 158.5 12)"><text x="0" y="20" font-family="Cascadia, Segoe UI Emoji" font-size="20px" fill="#000000" text-anchor="start" style="white-space: pre;" direction="ltr">advanceCommitIndexForLeader</text></g><g stroke-linecap="round"><g transform="translate(2175.7186104910725 550.3793029785147) rotate(0 25.48586036372933 1.9009642566367972)"><path d="M0.06 1.18 C8.7 1.6, 43.69 2.81, 52.35 3.05 M-1.37 0.75 C7.1 0.81, 42.8 1.45, 51.56 1.42" stroke="#000000" stroke-width="1" fill="none"></path></g><g transform="translate(2175.7186104910725 550.3793029785147) rotate(0 25.48586036372933 1.9009642566367972)"><path d="M28.98 10.63 C36.86 7.07, 44.53 3.84, 51.57 1.89 M26.73 10.4 C35.24 7.2, 43.48 3.46, 52.44 0.89" stroke="#000000" stroke-width="1" fill="none"></path></g><g transform="translate(2175.7186104910725 550.3793029785147) rotate(0 25.48586036372933 1.9009642566367972)"><path d="M29.14 -7.18 C37.04 -4.7, 44.66 -1.88, 51.57 1.89 M26.89 -7.41 C35.4 -4.54, 43.59 -2.22, 52.44 0.89" stroke="#000000" stroke-width="1" fill="none"></path></g></g><g stroke-linecap="round" transform="translate(2652.420942034041 494.06384277343653) rotate(0 163.48959350585938 60.20509338378906)"><path d="M-0.57 0.65 C128.56 -2.08, 256.66 -2.3, 328.34 -0.94 M0.07 0.65 C88.6 1.38, 178.57 1.44, 327.61 -0.25 M326.84 -0.19 C329.03 31.44, 327.13 60.69, 327.89 119.95 M326.06 0.29 C327.81 37.63, 327.84 76.85, 327.24 119.74 M327.57 121.67 C221 119.22, 114.54 117.73, -0.6 120.57 M327.4 119.86 C208.03 120.53, 87.8 120.08, 0.12 120.81 M0.96 118.47 C0.1 78.7, -1.48 35.44, -0.35 -0.99 M-0.7 119.59 C-0.77 82.25, -1.61 44.55, -0.01 -0.32" stroke="#000000" stroke-width="1" fill="none"></path></g><g transform="translate(2698.0204293387287 534.9999999999991) rotate(0 123.5 12)"><text x="0" y="20" font-family="Cascadia, Segoe UI Emoji" font-size="20px" fill="#000000" text-anchor="start" style="white-space: pre;" direction="ltr">rf.applyCond.Signal()</text></g><g stroke-linecap="round"><g transform="translate(2586.0690133231037 552.3771057128897) rotate(0 29.288835182674347 0.4327588285872537)"><path d="M-1.19 -0.74 C8.61 -0.58, 47.48 -0.14, 57.59 0.08 M0.39 1.49 C10.65 1.87, 49.96 1.2, 59.77 1.25" stroke="#000000" stroke-width="1" fill="none"></path></g><g transform="translate(2586.0690133231037 552.3771057128897) rotate(0 29.288835182674347 0.4327588285872537)"><path d="M31.06 9.75 C36.72 11.17, 43.08 8.35, 57.81 0.84 M32.42 12.03 C43.23 6.42, 53.45 2.69, 59.75 1.11" stroke="#000000" stroke-width="1" fill="none"></path></g><g transform="translate(2586.0690133231037 552.3771057128897) rotate(0 29.288835182674347 0.4327588285872537)"><path d="M30.93 -10.3 C36.46 -4.85, 42.85 -3.63, 57.81 0.84 M32.29 -8.02 C42.95 -6.03, 53.22 -2.16, 59.75 1.11" stroke="#000000" stroke-width="1" fill="none"></path></g></g><g stroke-linecap="round"><g transform="translate(1458.77024623326 783.6610107421866) rotate(0 33.14976321384307 1.0946535260975452)"><path d="M-0.16 0.2 C10.79 0.42, 54.62 1.36, 65.7 1.57 M-1.7 -0.75 C9.62 -0.36, 56.8 2.39, 68 2.94" stroke="#000000" stroke-width="1" fill="none"></path></g><g transform="translate(1458.77024623326 783.6610107421866) rotate(0 33.14976321384307 1.0946535260975452)"><path d="M39.63 10.35 C47.44 8.79, 55.91 8.25, 69.28 2.96 M38.61 12.63 C46.12 10.56, 52.37 7.43, 67.18 2.74" stroke="#000000" stroke-width="1" fill="none"></path></g><g transform="translate(1458.77024623326 783.6610107421866) rotate(0 33.14976321384307 1.0946535260975452)"><path d="M40.73 -10.14 C48.25 -5.49, 56.38 0.18, 69.28 2.96 M39.72 -7.86 C46.91 -5.39, 52.91 -3.98, 67.18 2.74" stroke="#000000" stroke-width="1" fill="none"></path></g></g><g stroke-linecap="round" transform="translate(1532.0096261160725 716.7935791015616) rotate(0 139.28485107421875 70.462158203125)"><path d="M-1.1 -1.39 C55.53 0.79, 112.78 0.35, 279.46 0.69 M-0.31 0.49 C105.36 -0.83, 211.2 -0.94, 278.18 -0.45 M276.72 -0.25 C280.64 33.26, 277.98 70.52, 279.97 140.65 M277.6 -0.9 C278.36 38.87, 277.41 79.63, 277.93 141.64 M279.66 140.35 C209.67 141.26, 143.27 140.3, 0.16 141.11 M278.51 140.87 C166.99 141.69, 56.39 142.09, 0.24 140.93 M0.32 139.41 C-1.64 96.58, 0.36 55.34, -0.74 1.59 M-0.56 140.38 C-0.02 103.75, -0.75 66.79, -0.41 0.75" stroke="#000000" stroke-width="1" fill="none"></path></g><g transform="translate(1557.7732369559162 773.1416625976553) rotate(0 112 12)"><text x="0" y="20" font-family="Cascadia, Segoe UI Emoji" font-size="20px" fill="#000000" text-anchor="start" style="white-space: pre;" direction="ltr">rf.applyCond.Wait()</text></g><g transform="translate(1906.0204293387287 767.9999999999991) rotate(0 18 12)"><text x="0" y="20" font-family="Cascadia, Segoe UI Emoji" font-size="20px" fill="#000000" text-anchor="start" style="white-space: pre;" direction="ltr">...</text></g><g stroke-linecap="round" transform="translate(2085.0304391043537 718.9690246582022) rotate(0 178.55169677734375 67.54048156738281)"><path d="M0.61 -0.45 C127.1 0.89, 254.76 -0.4, 357.59 0.15 M-0.46 -0.13 C92.83 0.26, 186.76 -0.24, 357.24 -0.55 M356.45 1.64 C356.49 40.69, 355.72 80.05, 358.6 133.34 M357.37 0.95 C356.8 48.35, 357.12 98.61, 357.32 134.19 M357.95 134.38 C273.13 134.95, 187.07 134.71, -0.29 134.76 M357.63 135.36 C252.3 135.3, 147.99 135.01, -0.55 134.99 M-0.3 136.73 C-1.15 85.92, -0.9 34.68, -1.7 1.94 M-0.77 136.02 C0.5 98.46, 0.11 59.44, -0.61 -0.31" stroke="#000000" stroke-width="1" fill="none"></path></g><g transform="translate(2107.330854143416 771.914088657923) rotate(0 153 12)"><text x="0" y="20" font-family="Cascadia, Segoe UI Emoji" font-size="20px" fill="#000000" text-anchor="start" style="white-space: pre;" direction="ltr">rf.applyCh &lt;- &amp;pb.ApplyMsg</text></g><g stroke-linecap="round"><g transform="translate(2132.448285784041 823.4760742187491) rotate(0 -101.2374957446242 84.18412104663702)"><path d="M0.93 -0.05 C-33.12 28.03, -169.35 140.29, -203.41 168.32 M-0.04 -1.12 C-33.78 27.12, -167.6 141.13, -201.08 169.49" stroke="#000000" stroke-width="1" fill="none"></path></g><g transform="translate(2132.448285784041 823.4760742187491) rotate(0 -101.2374957446242 84.18412104663702)"><path d="M-186.32 142.19 C-193.05 152.08, -198.89 163.81, -201.25 169.93 M-185.58 143.9 C-189.91 151.25, -194.2 159.23, -200.59 170.43" stroke="#000000" stroke-width="1" fill="none"></path></g><g transform="translate(2132.448285784041 823.4760742187491) rotate(0 -101.2374957446242 84.18412104663702)"><path d="M-173.04 157.83 C-184.74 161.94, -195.59 167.78, -201.25 169.93 M-172.3 159.54 C-180.49 162.34, -188.67 165.75, -200.59 170.43" stroke="#000000" stroke-width="1" fill="none"></path></g></g><g stroke-linecap="round" transform="translate(1746.417463030135 999.6410522460928) rotate(0 192.24850463867188 52.30413818359375)"><path d="M239.32 1.56 C259.34 2.25, 281.15 6.52, 298.79 9.54 C316.44 12.56, 332.49 15.53, 345.2 19.7 C357.9 23.87, 368.6 29.05, 375.01 34.55 C381.42 40.04, 383.76 46.95, 383.67 52.66 C383.58 58.37, 381.05 63.4, 374.47 68.82 C367.88 74.24, 357 80.74, 344.16 85.18 C331.32 89.62, 315.12 92.31, 297.43 95.46 C279.73 98.6, 258.12 102.59, 238 104.04 C217.87 105.48, 197.32 104.67, 176.68 104.12 C156.04 103.57, 133.47 102.97, 114.17 100.75 C94.87 98.53, 75.96 94.6, 60.88 90.79 C45.8 86.98, 33.53 82.97, 23.71 77.88 C13.9 72.78, 5.53 65.96, 2 60.23 C-1.52 54.51, -1.11 49.12, 2.56 43.51 C6.23 37.9, 14.06 31.44, 24.02 26.55 C33.97 21.65, 47.05 17.77, 62.28 14.15 C77.52 10.54, 96.2 7.26, 115.4 4.86 C134.6 2.46, 154.75 0.03, 177.47 -0.23 C200.18 -0.49, 237.69 2.34, 251.7 3.3 C265.7 4.27, 262.6 4.71, 261.51 5.57 M276.42 6.23 C295.25 7.94, 311.89 12.27, 326.32 15.99 C340.74 19.71, 353.39 23.58, 362.97 28.55 C372.54 33.51, 380.9 40, 383.78 45.76 C386.66 51.52, 384.6 57.46, 380.25 63.1 C375.9 68.74, 368.21 74.88, 357.67 79.61 C347.13 84.33, 332.93 87.74, 317.01 91.45 C301.09 95.16, 281.26 99.5, 262.13 101.87 C243 104.23, 222.98 105.61, 202.26 105.62 C181.54 105.63, 158.08 103.91, 137.8 101.93 C117.53 99.96, 97.46 96.98, 80.59 93.77 C63.71 90.57, 48.64 86.99, 36.55 82.68 C24.46 78.38, 14.01 73.36, 8.04 67.96 C2.07 62.56, 0.2 55.97, 0.74 50.3 C1.28 44.63, 4.14 39.28, 11.28 33.95 C18.43 28.61, 29.81 22.45, 43.61 18.26 C57.4 14.07, 76.29 11.86, 94.06 8.83 C111.83 5.8, 130 1.31, 150.23 0.09 C170.46 -1.13, 194.65 0.64, 215.44 1.49 C236.23 2.35, 265.33 4.38, 274.94 5.22 C284.55 6.05, 274.32 5.85, 273.09 6.51" stroke="#000000" stroke-width="1" fill="none"></path></g><g transform="translate(1751.417463030135 1039.9451904296866) rotate(0 187 12)"><text x="187" y="20" font-family="Cascadia, Segoe UI Emoji" font-size="20px" fill="#000000" text-anchor="middle" style="white-space: pre;" direction="ltr">application apply</text></g><g stroke-linecap="round" transform="translate(2540.14719935826 717.6939392089835) rotate(0 216.51350184849343 67.65602111816406)"><path d="M-0.6 -0.41 C151.7 2.11, 301.84 1.28, 433.57 -0.42 M-0.36 0.11 C167.49 1.51, 334.26 1.22, 433.34 -0.21 M434.18 -0.12 C434.07 48.95, 433.4 103.19, 431.76 136.24 M434.02 -0.56 C432.76 32.98, 432.42 64.43, 432.67 134.35 M433.92 135.51 C328.04 135.85, 223.72 135.86, 0.89 135.62 M432.74 135.55 C301.46 137.51, 170 137.63, 0.04 135.12 M0.79 134.04 C-1.46 106.36, 0.65 79.59, 0.31 -1.37 M0.33 135.59 C-1.24 87.3, -0.49 40.94, 0.92 0.04" stroke="#000000" stroke-width="1" fill="none"></path></g><g transform="translate(2607.829145159041 772.472194126673) rotate(0 141 12)"><text x="0" y="20" font-family="Cascadia, Segoe UI Emoji" font-size="20px" fill="#000000" text-anchor="start" style="white-space: pre;" direction="ltr">  set rf.lastApplied idx</text></g><g stroke-linecap="round"><g transform="translate(2447.982892717635 791.0846046134322) rotate(0 39.7615772211924 -1.3965940721540164)"><path d="M1.05 -0.38 C14.33 -0.5, 66.12 -0.29, 79.38 -0.47 M0.14 -1.63 C13.29 -2.14, 64.99 -2.56, 78.37 -2.36" stroke="#000000" stroke-width="1" fill="none"></path></g><g transform="translate(2447.982892717635 791.0846046134322) rotate(0 39.7615772211924 -1.3965940721540164)"><path d="M49.53 7.65 C58.54 6.65, 64.54 0.82, 77.79 -4.14 M49.96 7.54 C57.32 4.56, 62.56 2.47, 79.15 -3.35" stroke="#000000" stroke-width="1" fill="none"></path></g><g transform="translate(2447.982892717635 791.0846046134322) rotate(0 39.7615772211924 -1.3965940721540164)"><path d="M49.55 -12.87 C58.61 -8.28, 64.59 -8.52, 77.79 -4.14 M49.99 -12.98 C57.36 -11.2, 62.6 -8.52, 79.15 -3.35" stroke="#000000" stroke-width="1" fill="none"></path></g></g><g transform="translate(2200.967764718192 631.8856549944187) rotate(0 35.5 12)"><text x="0" y="20" font-family="Cascadia, Segoe UI Emoji" font-size="20px" fill="#000000" text-anchor="start" style="white-space: pre;" direction="ltr">notify</text></g><g stroke-linecap="round" transform="translate(1642.2950526646205 233.9855957031241) rotate(0 146.5 84.80538504464286)"><path d="M1.16 -1.34 C77.03 0.49, 152.9 -1.14, 291.95 -0.56 M-0.03 0.33 C104.41 0.2, 208.98 -0.02, 293.15 0.59 M292.28 -0.27 C292.46 48.74, 294.76 95.32, 292.39 168.76 M293.3 0.62 C295.35 59.91, 294.39 118.51, 292.71 170.08 M294.03 168.87 C231.52 168.6, 171.68 169.43, 1.3 169.55 M293.5 169.29 C198.15 168.8, 103.18 167.79, 0.06 169.79 M1.59 169.05 C-0.85 130.29, -1.76 95.39, -1.86 -1.73 M-0.67 170.17 C-0.89 132.34, -0.55 93.58, 0.63 -0.96" stroke="#000000" stroke-width="1" fill="none"></path></g><g transform="translate(1689.412100655692 304.9572317940839) rotate(0 100 12)"><text x="0" y="20" font-family="Cascadia, Segoe UI Emoji" font-size="20px" fill="#000000" text-anchor="start" style="white-space: pre;" direction="ltr">replicateOneRound</text></g><g transform="translate(1911.3397652762278 811.0714285714275) rotate(0 24 12)"><text x="0" y="20" font-family="Cascadia, Segoe UI Emoji" font-size="20px" fill="#000000" text-anchor="start" style="white-space: pre;" direction="ltr">wait</text></g><g transform="translate(1515.449000767299 318.57142857142765) rotate(0 24 12)"><text x="0" y="20" font-family="Cascadia, Segoe UI Emoji" font-size="20px" fill="#000000" text-anchor="start" style="white-space: pre;" direction="ltr">wait</text></g><g stroke-linecap="round" transform="translate(10 170.79453822544588) rotate(0 165.5 83.5)"><path d="M99.05 7.44 C113.61 3, 133.75 1.67, 151.46 0.85 C169.16 0.03, 187.8 0.53, 205.29 2.49 C222.79 4.45, 241.39 7.72, 256.41 12.62 C271.43 17.52, 284.35 24.75, 295.42 31.87 C306.48 38.99, 316.88 46.68, 322.81 55.32 C328.73 63.96, 330.93 74.65, 330.97 83.71 C331 92.77, 328.77 101.11, 323.01 109.66 C317.25 118.21, 307.33 127.77, 296.4 135 C285.47 142.22, 272.43 148.22, 257.41 153 C242.4 157.78, 223.98 161.52, 206.34 163.68 C188.69 165.84, 169.19 166.45, 151.54 165.97 C133.89 165.49, 116.8 164.28, 100.43 160.81 C84.06 157.34, 66.66 151.47, 53.32 145.14 C39.97 138.81, 28.99 130.61, 20.37 122.82 C11.75 115.03, 4.66 107.23, 1.58 98.4 C-1.5 89.56, -1.11 78.86, 1.88 69.81 C4.88 60.76, 10.92 52.06, 19.53 44.09 C28.15 36.12, 39.56 28.24, 53.58 21.98 C67.59 15.71, 94.37 8.93, 103.65 6.52 C112.93 4.11, 108.06 6.24, 109.24 7.5 M154.73 1.57 C171.43 -0.6, 190.54 -0.05, 207.55 2.2 C224.55 4.46, 241.89 10.1, 256.75 15.1 C271.6 20.1, 285.76 25.02, 296.65 32.21 C307.54 39.4, 316.48 49.5, 322.07 58.24 C327.67 66.99, 330.41 76, 330.22 84.69 C330.03 93.38, 326.76 101.72, 320.93 110.38 C315.1 119.03, 306.2 129.22, 295.26 136.63 C284.31 144.04, 270.28 150.01, 255.27 154.83 C240.27 159.66, 222.61 163.69, 205.23 165.56 C187.86 167.43, 168.89 166.96, 151.04 166.06 C133.19 165.16, 114.84 163.57, 98.11 160.16 C81.39 156.76, 63.93 152.19, 50.7 145.65 C37.47 139.1, 26.81 129.16, 18.72 120.9 C10.64 112.63, 5.09 104.62, 2.18 96.07 C-0.74 87.52, -2.07 78.57, 1.22 69.59 C4.52 60.61, 13.18 50.4, 21.93 42.19 C30.68 33.97, 40.78 26.32, 53.73 20.32 C66.67 14.33, 82.9 9.37, 99.6 6.21 C116.3 3.06, 144.69 2.12, 153.91 1.37 C163.13 0.63, 154.87 0.37, 154.91 1.74" stroke="#000000" stroke-width="1" fill="none"></path></g><g transform="translate(15 242.29453822544588) rotate(0 160.5 12)"><text x="160.5" y="20" font-family="Cascadia, Segoe UI Emoji" font-size="20px" fill="#000000" text-anchor="middle" style="white-space: pre;" direction="ltr">application propose</text></g><g stroke-linecap="round" transform="translate(602.1749005998884 194.12942068917357) rotate(0 65.07254464285711 55.498984200613876)"><path d="M-0.77 -1.8 C25.43 -2.76, 52.98 -1.01, 131.71 0.8 M-0.72 0.38 C38.14 -0.75, 76.61 -1.8, 129.6 0.43 M130.01 -0.78 C131.85 25.02, 130.04 48.04, 130.94 110.87 M129.29 0.35 C130.77 41.69, 130.3 84.22, 129.8 110.19 M130.2 112.2 C91.59 112.46, 52.23 110.38, -0.8 111.66 M129.42 110.57 C81.31 112, 32.97 111.24, 0.39 110.34 M1.41 112.9 C-2.13 80.16, -1.92 51.21, 0.95 -1.14 M-0.46 111.27 C0.95 88.8, 1.59 66.36, 0.55 -0.95" stroke="#000000" stroke-width="1" fill="none"></path></g><g transform="translate(607.1749005998884 225.62840488978745) rotate(0 60 24)"><text x="60" y="20" font-family="Cascadia, Segoe UI Emoji" font-size="20px" fill="#000000" text-anchor="middle" style="white-space: pre;" direction="ltr">Append</text><text x="60" y="44" font-family="Cascadia, Segoe UI Emoji" font-size="20px" fill="#000000" text-anchor="middle" style="white-space: pre;" direction="ltr">new op Log</text></g><g stroke-linecap="round" transform="translate(773.614981515067 194.64573451450843) rotate(0 97.490234375 56.215951102120556)"><path d="M-1.76 1.86 C40.84 2.48, 77.26 1.94, 194.99 1.53 M0.78 -0.43 C62.04 -1.32, 122.13 -1.44, 195.11 0.58 M195.01 0.07 C196.87 32.62, 195.98 65.77, 196 113.59 M194.9 0.23 C195.59 38.19, 195.32 77.42, 195.22 111.51 M194.45 112.32 C131.19 111.14, 69.72 109.37, -1.82 110.74 M195.88 112.68 C136.72 111.69, 79.88 113.46, -0.95 112.59 M0.81 111.79 C-0.03 72.4, 1.19 29.26, 1.74 1.08 M-0.09 111.84 C-1.01 68.82, 0.63 22.77, 0.18 0.9" stroke="#000000" stroke-width="1" fill="none"></path></g><g transform="translate(781.1202305385045 242.5404575892852) rotate(0 88.5 12)"><text x="0" y="20" font-family="Cascadia, Segoe UI Emoji" font-size="20px" fill="#000000" text-anchor="start" style="white-space: pre;" direction="ltr">BroadcastAppend</text></g><g stroke-linecap="round"><g transform="translate(972.5670078822546 191.20509556361594) rotate(0 74.36969975198491 -82.16881908630688)"><path d="M0.77 -0.25 C25.69 -27.61, 124.45 -136.94, 149.02 -164.09 M-0.28 -1.42 C24.58 -28.6, 123.86 -135.37, 148.48 -162.65" stroke="#000000" stroke-width="1" fill="none"></path></g></g><g transform="translate(1159.7347150530136 10) rotate(0 205.49999999999994 12)"><text x="0" y="20" font-family="Cascadia, Segoe UI Emoji" font-size="20px" fill="#000000" text-anchor="start" style="white-space: pre;" direction="ltr">rf.replicatorCond[peer.id].Signal()</text></g><g stroke-linecap="round"><g transform="translate(1528.8959176199778 68.92534528459822) rotate(0 28.686811025258407 118.96997371765521)"><path d="M0.42 0.68 C10.14 40.14, 48.93 197.47, 58.2 236.98 M-0.82 -0.01 C8.86 39.55, 48 198.14, 57.87 237.95" stroke="#000000" stroke-width="1" fill="none"></path></g><g transform="translate(1528.8959176199778 68.92534528459822) rotate(0 28.686811025258407 118.96997371765521)"><path d="M42.27 215.01 C44.22 218.53, 50.31 227.18, 56.65 238.54 M40.6 212.47 C45.92 221.25, 50.64 228.63, 57.21 238.37" stroke="#000000" stroke-width="1" fill="none"></path></g><g transform="translate(1528.8959176199778 68.92534528459822) rotate(0 28.686811025258407 118.96997371765521)"><path d="M62.19 210.09 C58.4 215.1, 58.73 225.17, 56.65 238.54 M60.52 207.54 C59.82 217.69, 58.55 226.55, 57.21 238.37" stroke="#000000" stroke-width="1" fill="none"></path></g></g><g transform="translate(1531.1632864815851 348.5714285714285) rotate(0 18 12)"><text x="0" y="20" font-family="Cascadia, Segoe UI Emoji" font-size="20px" fill="#000000" text-anchor="start" style="white-space: pre;" direction="ltr">...</text></g><g stroke-linecap="round"><g transform="translate(2747.3256051199783 632.6749790736608) rotate(0 -365.8096951439818 30.237631949942)"><path d="M1 -0.94 C-120.84 9.31, -609.56 51.15, -731.95 61.42 M0.07 1.18 C-121.8 11.11, -610.79 49.61, -732.62 59.74" stroke="#000000" stroke-width="1" fill="none"></path></g></g><g stroke-linecap="round"><g transform="translate(2015.6607927594869 693.6151994977679) rotate(0 -13.266162550390845 50.19234636139123)"><path d="M0.18 -0.3 C-4.25 16.75, -21.45 84.89, -25.69 101.89 M-1.19 -1.51 C-5.87 15.28, -22.6 83.46, -26.71 100.36" stroke="#000000" stroke-width="1" fill="none"></path></g><g transform="translate(2015.6607927594869 693.6151994977679) rotate(0 -13.266162550390845 50.19234636139123)"><path d="M-30.47 70.29 C-26.99 82.2, -26.09 92.19, -26.98 101.52 M-29.53 69.57 C-28.45 77.61, -28.67 83.69, -25.72 100.38" stroke="#000000" stroke-width="1" fill="none"></path></g><g transform="translate(2015.6607927594869 693.6151994977679) rotate(0 -13.266162550390845 50.19234636139123)"><path d="M-10.54 75.18 C-14.52 85.28, -21.1 93.44, -26.98 101.52 M-9.6 74.46 C-13.26 81.24, -18.18 86.17, -25.72 100.38" stroke="#000000" stroke-width="1" fill="none"></path></g></g><g stroke-linecap="round"><g transform="translate(352.3574317274562 244.64909743311296) rotate(0 115.67797279436716 0.7292234157887236)"><path d="M-0.58 0.82 C37.99 0.93, 193.42 1.45, 231.94 1.72 M1.31 0.2 C39.71 0.45, 192.6 -0.34, 231.21 -0.26" stroke="#000000" stroke-width="1" fill="none"></path></g><g transform="translate(352.3574317274562 244.64909743311296) rotate(0 115.67797279436716 0.7292234157887236)"><path d="M204.4 10.75 C213.04 5.06, 223.93 5.06, 232.06 -1.98 M203.51 10.42 C213.12 5.16, 225.51 2.67, 231.25 0.67" stroke="#000000" stroke-width="1" fill="none"></path></g><g transform="translate(352.3574317274562 244.64909743311296) rotate(0 115.67797279436716 0.7292234157887236)"><path d="M204.36 -9.77 C213.19 -8.44, 224.1 -1.41, 232.06 -1.98 M203.47 -10.1 C213.26 -7.45, 225.67 -2.02, 231.25 0.67" stroke="#000000" stroke-width="1" fill="none"></path></g></g><g stroke-linecap="round"><g transform="translate(1038.725437709265 321.15307123626644) rotate(0 46.743881170637906 -17.086201215613528)"><path d="M-1.11 0.47 C14.21 -5.17, 76.7 -27.29, 92.29 -32.7 M0.51 -0.33 C16.17 -5.84, 79.47 -29.07, 94.6 -34.64" stroke="#000000" stroke-width="1" fill="none"></path></g><g transform="translate(1038.725437709265 321.15307123626644) rotate(0 46.743881170637906 -17.086201215613528)"><path d="M72.46 -16.56 C79.68 -22.6, 88.51 -26.96, 95.97 -33.69 M71.86 -15.88 C78.52 -20.05, 84.7 -26.1, 95.55 -34.82" stroke="#000000" stroke-width="1" fill="none"></path></g><g transform="translate(1038.725437709265 321.15307123626644) rotate(0 46.743881170637906 -17.086201215613528)"><path d="M65.38 -35.83 C75.15 -35.39, 86.34 -33.33, 95.97 -33.69 M64.79 -35.14 C73.4 -33.52, 81.7 -33.82, 95.55 -34.82" stroke="#000000" stroke-width="1" fill="none"></path></g></g><g stroke-linecap="round"><g transform="translate(1044.885593959265 511.07012265166907) rotate(0 41.5891256538406 9.131348218860097)"><path d="M0.74 0.97 C14.7 4.12, 69.81 15.1, 83.51 17.83 M-0.33 0.43 C13.45 3.31, 68 12.92, 82.26 15.97" stroke="#000000" stroke-width="1" fill="none"></path></g><g transform="translate(1044.885593959265 511.07012265166907) rotate(0 41.5891256538406 9.131348218860097)"><path d="M54.25 19.75 C61.71 17.33, 69.17 16.03, 82.57 15.26 M53.6 20.26 C61.73 18.33, 71.67 18.07, 82.34 15.92" stroke="#000000" stroke-width="1" fill="none"></path></g><g transform="translate(1044.885593959265 511.07012265166907) rotate(0 41.5891256538406 9.131348218860097)"><path d="M58.14 -0.4 C64.34 2.78, 70.73 7.07, 82.57 15.26 M57.49 0.11 C64.24 4.42, 72.97 10.41, 82.34 15.92" stroke="#000000" stroke-width="1" fill="none"></path></g></g><g stroke-linecap="round"><g transform="translate(1042.894383021765 650.053047181106) rotate(0 47.997792117483925 65.20824640389463)"><path d="M0.27 0.38 C16.56 22.34, 80.72 109.12, 97.04 130.89 M-1.05 -0.47 C15.11 21.19, 79.4 107.38, 95.88 128.94" stroke="#000000" stroke-width="1" fill="none"></path></g><g transform="translate(1042.894383021765 650.053047181106) rotate(0 47.997792117483925 65.20824640389463)"><path d="M71.34 111.9 C77.18 117.67, 83.39 119.66, 94.43 130.75 M70.23 112.55 C80.9 118.87, 88.87 124.91, 95.46 129.48" stroke="#000000" stroke-width="1" fill="none"></path></g><g transform="translate(1042.894383021765 650.053047181106) rotate(0 47.997792117483925 65.20824640389463)"><path d="M87.73 99.55 C89.55 108.32, 91.83 113.27, 94.43 130.75 M86.62 100.2 C91 111.21, 92.78 121.91, 95.46 129.48" stroke="#000000" stroke-width="1" fill="none"></path></g></g><g transform="translate(1079.734715053015 225.14285714285717) rotate(0 12 12)"><text x="0" y="20" font-family="Cascadia, Segoe UI Emoji" font-size="20px" fill="#000000" text-anchor="start" style="white-space: pre;" direction="ltr">go</text></g><g transform="translate(1081.734715053015 457.14285714285717) rotate(0 12 12)"><text x="0" y="20" font-family="Cascadia, Segoe UI Emoji" font-size="20px" fill="#000000" text-anchor="start" style="white-space: pre;" direction="ltr">go</text></g><g transform="translate(1091.734715053015 637.1428571428571) rotate(0 12 12)"><text x="0" y="20" font-family="Cascadia, Segoe UI Emoji" font-size="20px" fill="#000000" text-anchor="start" style="white-space: pre;" direction="ltr">go</text></g><g stroke-linecap="round"><g transform="translate(1989.5345807756712 315.73161751883373) rotate(0 25.698665665462613 2.12281435681507)"><path d="M-0.52 1 C8.27 1.55, 43.05 2.17, 51.92 2.19 M1.41 0.48 C10.1 1.34, 42.44 3.53, 50.91 3.76" stroke="#000000" stroke-width="1" fill="none"></path></g><g transform="translate(1989.5345807756712 315.73161751883373) rotate(0 25.698665665462613 2.12281435681507)"><path d="M27.7 11.23 C31.95 10.81, 35.87 9.89, 49.45 2.9 M25.42 12.13 C31.34 8.88, 37.21 7.19, 50.91 4.06" stroke="#000000" stroke-width="1" fill="none"></path></g><g transform="translate(1989.5345807756712 315.73161751883373) rotate(0 25.698665665462613 2.12281435681507)"><path d="M28.6 -6.56 C32.48 -2.88, 36.19 0.31, 49.45 2.9 M26.32 -5.66 C32.06 -4.71, 37.71 -2.19, 50.91 4.06" stroke="#000000" stroke-width="1" fill="none"></path></g></g><g stroke-linecap="round" transform="translate(2089.2599836077025 261.76778084891185) rotate(0 174.43649291992188 58.211212158203125)"><path d="M-1.19 1.07 C83.51 0.52, 166.94 1.53, 348.04 0.71 M0.16 -0.47 C122.24 -0.81, 243.51 -1.62, 349.06 0.27 M348.07 0.1 C348.69 32.16, 347.26 62.36, 348.27 116.51 M348.53 -0.47 C348.97 38.4, 348.25 75.91, 348.53 116 M347.97 116.78 C263.21 114.36, 176.83 115.44, -0.16 116.63 M349.26 116.7 C255.15 115.77, 161.6 115.9, 0.06 116.37 M-1.04 118.19 C-1.55 84.19, -0.03 48.55, -1.02 1.42 M0.21 116.11 C0.64 83.37, 1.59 49.07, 0.22 0.16" stroke="#000000" stroke-width="1" fill="none"></path></g><g transform="translate(2106.279942103796 307.11616952078685) rotate(0 158.5 12)"><text x="0" y="20" font-family="Cascadia, Segoe UI Emoji" font-size="20px" fill="#000000" text-anchor="start" style="white-space: pre;" direction="ltr">advanceCommitIndexForLeader</text></g><g stroke-linecap="round" transform="translate(2511.2864118303587 259.09785897391185) rotate(0 163.48959350585938 60.20509338378906)"><path d="M0.69 -0.87 C80.07 -1.66, 156.64 -1.11, 327.66 0.36 M0.45 0.26 C113.07 1.02, 226.58 1.9, 326.73 -0.63 M327.86 1.43 C325.94 44.64, 325.89 87.57, 327.55 120.88 M326.8 0.16 C325.67 30.86, 326.22 62.42, 326.43 121.12 M326.7 120.21 C254.42 121.97, 184.35 121.25, -0.43 120.8 M327.12 120.02 C233.42 121.11, 138.98 121.31, -0.05 120.36 M-1.63 122.22 C0.52 95.39, -0.39 71.35, -0.19 -1.64 M-0.32 121.21 C0.38 82.53, -0.03 44.14, -0.29 0.66" stroke="#000000" stroke-width="1" fill="none"></path></g><g transform="translate(2556.885899135046 300.03401620047435) rotate(0 123.5 12)"><text x="0" y="20" font-family="Cascadia, Segoe UI Emoji" font-size="20px" fill="#000000" text-anchor="start" style="white-space: pre;" direction="ltr">rf.applyCond.Signal()</text></g><g stroke-linecap="round"><g transform="translate(2444.934483119421 317.411121913365) rotate(0 29.013917906209826 0.6127163687763613)"><path d="M-0.76 1.14 C8.88 1.05, 48.78 -0.02, 58.78 0.02 M1.05 0.7 C10.45 0.68, 48.29 1.38, 57.92 1.16" stroke="#000000" stroke-width="1" fill="none"></path></g><g transform="translate(2444.934483119421 317.411121913365) rotate(0 29.013917906209826 0.6127163687763613)"><path d="M32.28 11.46 C39.59 8.61, 52.38 4.22, 58.85 1.66 M30.21 10.31 C36.88 9.2, 42.51 5.6, 58.56 0.76" stroke="#000000" stroke-width="1" fill="none"></path></g><g transform="translate(2444.934483119421 317.411121913365) rotate(0 29.013917906209826 0.6127163687763613)"><path d="M32.29 -8.59 C39.69 -3.78, 52.48 -0.5, 58.85 1.66 M30.21 -9.74 C37.01 -6.28, 42.65 -5.31, 58.56 0.76" stroke="#000000" stroke-width="1" fill="none"></path></g></g><g stroke-linecap="round"><g transform="translate(2846.316258021765 313.33060128348217) rotate(0 107.34694488096989 -0.10452694047242517)"><path d="M-0.3 -0.8 C35.18 -1.03, 177.12 -1.49, 212.77 -1.61 M1.74 1.4 C37.6 1.3, 179.83 -0.21, 215 -0.54" stroke="#000000" stroke-width="1" fill="none"></path></g></g><g stroke-linecap="round"><g transform="translate(3064.008640834265 315.50955636160717) rotate(0 -2.07291041415192 176.08897170908753)"><path d="M-0.86 -0.72 C-1.52 58.3, -4.71 294.13, -5.04 352.9 M0.89 1.52 C0.68 60.3, -2.28 292.59, -2.93 351.19" stroke="#000000" stroke-width="1" fill="none"></path></g></g><g stroke-linecap="round"><g transform="translate(3060.74277169364 667.0915876116071) rotate(0 -506.3912315417083 21.17677117481827)"><path d="M0.92 0.24 C-167.92 7.05, -844.92 34.73, -1013.71 41.95 M-0.05 -0.68 C-168.46 6.77, -842.8 36, -1011.47 43.03" stroke="#000000" stroke-width="1" fill="none"></path></g></g><g stroke-linecap="round"><g transform="translate(2048.87314278739 708.3612409319196) rotate(0 -20.537777736363978 44.68029864731244)"><path d="M-0.03 1.19 C-6.89 15.76, -33.81 74.3, -40.63 88.6 M-1.51 0.76 C-8.49 15.54, -34.41 72.55, -41.04 87.1" stroke="#000000" stroke-width="1" fill="none"></path></g><g transform="translate(2048.87314278739 708.3612409319196) rotate(0 -20.537777736363978 44.68029864731244)"><path d="M-36.72 58.9 C-37.22 68.7, -40.71 78.1, -41.39 87.76 M-38.45 56.21 C-39.39 67.04, -40.86 78.35, -41.13 86.93" stroke="#000000" stroke-width="1" fill="none"></path></g><g transform="translate(2048.87314278739 708.3612409319196) rotate(0 -20.537777736363978 44.68029864731244)"><path d="M-18.04 67.4 C-25.08 74.27, -35.01 80.72, -41.39 87.76 M-19.78 64.72 C-27.23 72.53, -35.25 80.86, -41.13 86.93" stroke="#000000" stroke-width="1" fill="none"></path></g></g></svg>