<svg version="1.1" viewBox="0.0 0.0 1044.4435695538057 245.5564304461942" fill="none" stroke="none" stroke-linecap="square" stroke-miterlimit="10" xmlns:xlink="http://www.w3.org/1999/xlink" xmlns="http://www.w3.org/2000/svg"><clipPath id="p.0"><path d="m0 0l1044.4436 0l0 245.55643l-1044.4436 0l0 -245.55643z" clip-rule="nonzero"/></clipPath><g clip-path="url(#p.0)"><path fill="#ffffff" d="m0 0l1044.4436 0l0 245.55643l-1044.4436 0z" fill-rule="evenodd"/><path fill="#cccccc" d="m73.08399 97.38058l257.5748 0l0 56.62992l-257.5748 0z" fill-rule="evenodd"/><path stroke="#000000" stroke-width="1.6771653543307086" stroke-linejoin="round" stroke-linecap="butt" d="m73.08399 97.38058l257.5748 0l0 56.62992l-257.5748 0z" fill-rule="evenodd"/><path fill="#000000" d="m193.9411 119.18603l0 -2.484375l2.15625 0l0 2.484375l-2.15625 0zm0 15.125008l0 -12.750008l2.15625 0l0 12.750008l-2.15625 0zm13.7139435 0l0 -1.609375q-1.203125 1.890625 -3.5625 1.890625q-1.53125 0 -2.8125 -0.828125q-1.265625 -0.84375 -1.96875 -2.34375q-0.703125 -1.515625 -0.703125 -3.4687576q0 -1.921875 0.625 -3.46875q0.640625 -1.5625 1.90625 -2.390625q1.28125 -0.828125 2.859375 -0.828125q1.15625 0 2.046875 0.5q0.90625 0.484375 1.46875 1.265625l0 -6.328125l2.15625 0l0 17.609383l-2.015625 0zm-6.828125 -6.3593826q0 2.4375076 1.03125 3.6562576q1.03125 1.21875 2.4375 1.21875q1.421875 0 2.40625 -1.15625q1.0 -1.171875 1.0 -3.546875q0 -2.6093826 -1.015625 -3.8281326q-1.015625 -1.234375 -2.484375 -1.234375q-1.4375 0 -2.40625 1.1875q-0.96875 1.171875 -0.96875 3.703125z" fill-rule="nonzero"/><path fill="#cccccc" d="m330.66464 97.38058l60.346436 0l0 56.62992l-60.346436 0z" fill-rule="evenodd"/><path stroke="#000000" stroke-width="1.6771653543307086" stroke-linejoin="round" stroke-linecap="butt" d="m330.66464 97.38058l60.346436 0l0 56.62992l-60.346436 0z" fill-rule="evenodd"/><path fill="#000000" d="m347.6334 129.92987l0 -5.03125l-0.859375 0l0 -0.765625l0.859375 0l0 -0.609375q0 -0.59375 0.109375 -0.875q0.140625 -0.375 0.5 -0.609375q0.359375 -0.25 1.0 -0.25q0.40625 0 0.90625 0.109375l-0.140625 0.859375q-0.3125 -0.0625 -0.578125 -0.0625q-0.453125 0 -0.640625 0.203125q-0.171875 0.1875 -0.171875 0.703125l0 0.53125l1.125 0l0 0.765625l-1.125 0l0 5.03125l-0.984375 0zm2.8539124 0l0 -8.0l0.984375 0l0 8.0l-0.984375 0zm6.2789 -0.71875q-0.546875 0.46875 -1.046875 0.65625q-0.5 0.1875 -1.078125 0.1875q-0.96875 0 -1.484375 -0.453125q-0.5 -0.46875 -0.5 -1.203125q0 -0.421875 0.1875 -0.765625q0.203125 -0.359375 0.515625 -0.5625q0.3125 -0.21875 0.703125 -0.328125q0.28125 -0.078125 0.875 -0.15625q1.1875 -0.140625 1.75 -0.328125q0 -0.203125 0 -0.265625q0 -0.59375 -0.28125 -0.84375q-0.375 -0.328125 -1.109375 -0.328125q-0.703125 0 -1.03125 0.25q-0.328125 0.234375 -0.484375 0.84375l-0.953125 -0.125q0.125 -0.609375 0.421875 -0.984375q0.296875 -0.390625 0.859375 -0.59375q0.578125 -0.203125 1.328125 -0.203125q0.734375 0 1.203125 0.171875q0.46875 0.171875 0.6875 0.4375q0.21875 0.265625 0.296875 0.671875q0.046875 0.25 0.046875 0.90625l0 1.3125q0 1.359375 0.0625 1.734375q0.0625 0.359375 0.25 0.6875l-1.015625 0q-0.15625 -0.3125 -0.203125 -0.71875zm-0.078125 -2.1875q-0.53125 0.21875 -1.609375 0.375q-0.609375 0.078125 -0.859375 0.1875q-0.25 0.109375 -0.390625 0.328125q-0.125 0.203125 -0.125 0.46875q0 0.390625 0.296875 0.65625q0.296875 0.25 0.875 0.25q0.5625 0 1.0 -0.25q0.4375 -0.25 0.65625 -0.671875q0.15625 -0.328125 0.15625 -0.984375l0 -0.359375zm2.3382874 3.390625l0.953125 0.140625q0.0625 0.4375 0.328125 0.640625q0.359375 0.265625 1.0 0.265625q0.6875 0 1.046875 -0.265625q0.375 -0.265625 0.5 -0.765625q0.078125 -0.296875 0.078125 -1.265625q-0.640625 0.765625 -1.609375 0.765625q-1.1875 0 -1.84375 -0.859375q-0.65625 -0.859375 -0.65625 -2.0625q0 -0.84375 0.296875 -1.53125q0.296875 -0.703125 0.859375 -1.078125q0.578125 -0.390625 1.359375 -0.390625q1.015625 0 1.6875 0.828125l0 -0.703125l0.90625 0l0 5.015625q0 1.34375 -0.28125 1.90625q-0.265625 0.578125 -0.875 0.890625q-0.59375 0.328125 -1.46875 0.328125q-1.03125 0 -1.671875 -0.46875q-0.640625 -0.453125 -0.609375 -1.390625zm0.8125 -3.484375q0 1.140625 0.453125 1.671875q0.453125 0.515625 1.125 0.515625q0.6875 0 1.140625 -0.515625q0.453125 -0.53125 0.453125 -1.640625q0 -1.0625 -0.46875 -1.59375q-0.46875 -0.546875 -1.140625 -0.546875q-0.65625 0 -1.109375 0.53125q-0.453125 0.53125 -0.453125 1.578125zm5.182007 1.265625l0.96875 -0.140625q0.078125 0.578125 0.453125 0.890625q0.375 0.3125 1.046875 0.3125q0.671875 0 1.0 -0.28125q0.328125 -0.28125 0.328125 -0.640625q0 -0.34375 -0.28125 -0.53125q-0.203125 -0.125 -1.0 -0.328125q-1.09375 -0.28125 -1.515625 -0.46875q-0.40625 -0.203125 -0.625 -0.546875q-0.21875 -0.359375 -0.21875 -0.78125q0 -0.390625 0.171875 -0.71875q0.1875 -0.328125 0.5 -0.546875q0.21875 -0.171875 0.609375 -0.28125q0.40625 -0.125 0.859375 -0.125q0.6875 0 1.203125 0.203125q0.515625 0.1875 0.75 0.53125q0.25 0.328125 0.34375 0.890625l-0.953125 0.125q-0.078125 -0.4375 -0.390625 -0.6875q-0.3125 -0.25 -0.875 -0.25q-0.6875 0 -0.984375 0.21875q-0.28125 0.21875 -0.28125 0.515625q0 0.203125 0.125 0.34375q0.125 0.15625 0.375 0.265625q0.140625 0.0625 0.859375 0.25q1.046875 0.28125 1.453125 0.46875q0.421875 0.171875 0.65625 0.515625q0.234375 0.328125 0.234375 0.828125q0 0.484375 -0.296875 0.921875q-0.28125 0.4375 -0.828125 0.671875q-0.53125 0.234375 -1.21875 0.234375q-1.125 0 -1.71875 -0.46875q-0.59375 -0.46875 -0.75 -1.390625z" fill-rule="nonzero"/><path fill="#cccccc" d="m390.9922 97.38058l60.346436 0l0 56.62992l-60.346436 0z" fill-rule="evenodd"/><path stroke="#000000" stroke-width="1.6771653543307086" stroke-linejoin="round" stroke-linecap="butt" d="m390.9922 97.38058l60.346436 0l0 56.62992l-60.346436 0z" fill-rule="evenodd"/><path fill="#000000" d="m411.5078 127.80487l0.96875 0.125q-0.15625 1.0 -0.8125 1.5625q-0.65625 0.5625 -1.59375 0.5625q-1.203125 0 -1.921875 -0.765625q-0.71875 -0.78125 -0.71875 -2.234375q0 -0.9375 0.3125 -1.640625q0.3125 -0.703125 0.9375 -1.046875q0.640625 -0.359375 1.390625 -0.359375q0.9375 0 1.53125 0.484375q0.609375 0.46875 0.78125 1.34375l-0.953125 0.15625q-0.140625 -0.59375 -0.484375 -0.875q-0.34375 -0.296875 -0.84375 -0.296875q-0.734375 0 -1.203125 0.53125q-0.453125 0.53125 -0.453125 1.671875q0 1.171875 0.4375 1.703125q0.453125 0.53125 1.171875 0.53125q0.578125 0 0.953125 -0.359375q0.390625 -0.359375 0.5 -1.09375zm1.4453125 -0.765625q0 -1.609375 0.890625 -2.390625q0.75 -0.640625 1.828125 -0.640625q1.1875 0 1.9375 0.78125q0.765625 0.78125 0.765625 2.15625q0 1.125 -0.34375 1.765625q-0.328125 0.640625 -0.96875 1.0q-0.640625 0.34375 -1.390625 0.34375q-1.21875 0 -1.96875 -0.765625q-0.75 -0.78125 -0.75 -2.25zm1.0 0q0 1.109375 0.484375 1.671875q0.484375 0.546875 1.234375 0.546875q0.71875 0 1.203125 -0.5625q0.5 -0.5625 0.5 -1.6875q0 -1.078125 -0.5 -1.625q-0.484375 -0.5625 -1.203125 -0.5625q-0.75 0 -1.234375 0.546875q-0.484375 0.546875 -0.484375 1.671875zm9.369507 2.890625l0 -0.84375q-0.671875 0.96875 -1.84375 0.96875q-0.5 0 -0.953125 -0.1875q-0.4375 -0.203125 -0.65625 -0.5q-0.21875 -0.296875 -0.296875 -0.71875q-0.0625 -0.296875 -0.0625 -0.921875l0 -3.59375l0.984375 0l0 3.21875q0 0.765625 0.046875 1.03125q0.09375 0.390625 0.390625 0.609375q0.3125 0.21875 0.75 0.21875q0.4375 0 0.828125 -0.21875q0.390625 -0.234375 0.546875 -0.625q0.15625 -0.390625 0.15625 -1.125l0 -3.109375l0.984375 0l0 5.796875l-0.875 0zm2.4164124 0l0 -5.796875l0.890625 0l0 0.828125q0.640625 -0.953125 1.84375 -0.953125q0.515625 0 0.953125 0.1875q0.4375 0.1875 0.65625 0.5q0.21875 0.296875 0.3125 0.71875q0.046875 0.265625 0.046875 0.953125l0 3.5625l-0.96875 0l0 -3.53125q0 -0.59375 -0.125 -0.890625q-0.109375 -0.296875 -0.40625 -0.46875q-0.28125 -0.1875 -0.6875 -0.1875q-0.625 0 -1.078125 0.40625q-0.453125 0.390625 -0.453125 1.515625l0 3.15625l-0.984375 0zm8.353882 -0.875l0.140625 0.859375q-0.40625 0.09375 -0.734375 0.09375q-0.53125 0 -0.828125 -0.171875q-0.296875 -0.171875 -0.421875 -0.4375q-0.109375 -0.28125 -0.109375 -1.171875l0 -3.328125l-0.71875 0l0 -0.765625l0.71875 0l0 -1.4375l0.96875 -0.578125l0 2.015625l0.984375 0l0 0.765625l-0.984375 0l0 3.390625q0 0.421875 0.046875 0.546875q0.0625 0.109375 0.171875 0.1875q0.125 0.0625 0.34375 0.0625q0.15625 0 0.421875 -0.03125z" fill-rule="nonzero"/><path fill="#cccccc" d="m451.3197 97.38058l127.84253 0l0 56.62992l-127.84253 0z" fill-rule="evenodd"/><path stroke="#000000" stroke-width="1.6771653543307086" stroke-linejoin="round" stroke-linecap="butt" d="m451.3197 97.38058l127.84253 0l0 56.62992l-127.84253 0z" fill-rule="evenodd"/><path fill="#000000" d="m474.3619 127.86721q0 -3.21875 1.78125 -4.765625q1.5 -1.296875 3.640625 -1.296875q2.40625 0 3.921875 1.578125q1.515625 1.5625 1.515625 4.3125q0 2.2499924 -0.671875 3.5312424q-0.671875 1.28125 -1.953125 2.0q-1.28125 0.703125 -2.8125 0.703125q-2.421875 0 -3.921875 -1.5625q-1.5 -1.5625 -1.5 -4.4999924zm2.015625 0q0 2.2343674 0.96875 3.3437424q0.96875 1.09375 2.4375 1.09375q1.46875 0 2.4375 -1.109375q0.96875 -1.109375 0.96875 -3.3906174q0 -2.15625 -0.984375 -3.265625q-0.96875 -1.109375 -2.421875 -1.109375q-1.46875 0 -2.4375 1.109375q-0.96875 1.09375 -0.96875 3.328125zm14.357086 5.7968674l-4.40625 -11.593742l2.078125 0l2.484375 6.9374924q0.40625 1.125 0.75 2.34375q0.265625 -0.921875 0.734375 -2.203125l2.5625 -7.0781174l2.03125 0l-4.390625 11.593742l-1.84375 0zm15.8984375 -3.734375l2.03125 0.25q-0.46875 1.78125 -1.78125 2.765625q-1.296875 0.984375 -3.3125 0.984375q-2.546875 0 -4.046875 -1.5625q-1.484375 -1.578125 -1.484375 -4.4062424q0 -2.921875 1.5 -4.53125q1.515625 -1.625 3.921875 -1.625q2.328125 0 3.796875 1.59375q1.46875 1.578125 1.46875 4.453125q0 0.17186737 0 0.5156174l-8.65625 0q0.109375 1.90625 1.078125 2.921875q0.984375 1.015625 2.4375 1.015625q1.078125 0 1.84375 -0.5625q0.765625 -0.5625 1.203125 -1.8125zm-6.453125 -3.1718674l6.484375 0q-0.140625 -1.46875 -0.75 -2.203125q-0.9375 -1.125 -2.4375 -1.125q-1.34375 0 -2.265625 0.90625q-0.921875 0.90625 -1.03125 2.421875zm10.935242 6.9062424l0 -11.593742l1.765625 0l0 1.75q0.671875 -1.234375 1.25 -1.625q0.578125 -0.390625 1.265625 -0.390625q0.984375 0 2.015625 0.640625l-0.671875 1.8125q-0.71875 -0.421875 -1.4375 -0.421875q-0.65625 0 -1.171875 0.390625q-0.5 0.390625 -0.71875 1.078125q-0.328125 1.046875 -0.328125 2.296875l0 6.0624924l-1.96875 0zm7.930237 0l0 -10.062492l-1.734375 0l0 -1.53125l1.734375 0l0 -1.234375q0 -1.171875 0.21875 -1.734375q0.28125 -0.765625 0.984375 -1.234375q0.71875 -0.484375 2.015625 -0.484375q0.828125 0 1.828125 0.203125l-0.296875 1.703125q-0.609375 -0.109375 -1.15625 -0.109375q-0.890625 0 -1.265625 0.390625q-0.375 0.375 -0.375 1.421875l0 1.078125l2.265625 0l0 1.53125l-2.265625 0l0 10.062492l-1.953125 0zm5.712158 0l0 -15.999992l1.953125 0l0 15.999992l-1.953125 0zm4.2800293 -5.7968674q0 -3.21875 1.78125 -4.765625q1.5 -1.296875 3.640625 -1.296875q2.40625 0 3.921875 1.578125q1.515625 1.5625 1.515625 4.3125q0 2.2499924 -0.671875 3.5312424q-0.671875 1.28125 -1.953125 2.0q-1.28125 0.703125 -2.8125 0.703125q-2.421875 0 -3.921875 -1.5625q-1.5 -1.5625 -1.5 -4.4999924zm2.015625 0q0 2.2343674 0.96875 3.3437424q0.96875 1.09375 2.4375 1.09375q1.46875 0 2.4375 -1.109375q0.96875 -1.109375 0.96875 -3.3906174q0 -2.15625 -0.984375 -3.265625q-0.96875 -1.109375 -2.421875 -1.109375q-1.46875 0 -2.4375 1.109375q-0.96875 1.09375 -0.96875 3.328125zm13.278992 5.7968674l-3.546875 -11.593742l2.03125 0l1.84375 6.6874924l0.6875 2.5q0.046875 -0.1875 0.609375 -2.390625l1.84375 -6.7968674l2.015625 0l1.734375 6.7187424l0.578125 2.21875l0.671875 -2.234375l1.984375 -6.7031174l1.90625 0l-3.625 11.593742l-2.03125 0l-1.84375 -6.9374924l-0.453125 -1.984375l-2.34375 8.921867l-2.0625 0z" fill-rule="nonzero"/><path fill="#ffffff" d="m579.16223 97.38058l127.84253 0l0 56.62992l-127.84253 0z" fill-rule="evenodd"/><path stroke="#000000" stroke-width="1.6771653543307086" stroke-linejoin="round" stroke-linecap="butt" d="m579.16223 97.38058l127.84253 0l0 56.62992l-127.84253 0z" fill-rule="evenodd"/><path fill="#000000" d="m622.4265 133.66408l0 -15.999992l6.046875 0q1.59375 0 2.4375 0.140625q1.171875 0.203125 1.96875 0.765625q0.796875 0.546875 1.28125 1.546875q0.484375 0.984375 0.484375 2.171875q0 2.046875 -1.296875 3.46875q-1.296875 1.40625 -4.6875 1.40625l-4.109375 0l0 6.4999924l-2.125 0zm2.125 -8.390617l4.140625 0q2.046875 0 2.90625 -0.765625q0.875 -0.765625 0.875 -2.15625q0 -1.0 -0.515625 -1.71875q-0.5 -0.71875 -1.34375 -0.9375q-0.53125 -0.140625 -1.96875 -0.140625l-4.09375 0l0 5.71875zm12.179138 9.343742l1.921875 0.296875q0.109375 0.875 0.65625 1.28125q0.734375 0.546875 2.0 0.546875q1.359375 0 2.09375 -0.546875q0.75 -0.546875 1.015625 -1.53125q0.15625 -0.59375 0.140625 -2.515625q-1.28125 1.515625 -3.203125 1.515625q-2.390625 0 -3.703125 -1.71875q-1.3125 -1.734375 -1.3125 -4.1406174q0 -1.65625 0.59375 -3.0625q0.609375 -1.40625 1.75 -2.171875q1.140625 -0.765625 2.6875 -0.765625q2.046875 0 3.375 1.65625l0 -1.390625l1.8125 0l0 10.015617q0 2.71875 -0.546875 3.84375q-0.546875 1.125 -1.75 1.78125q-1.1875 0.65625 -2.9375 0.65625q-2.078125 0 -3.359375 -0.9375q-1.28125 -0.921875 -1.234375 -2.8125zm1.625 -6.9531174q0 2.2812424 0.90625 3.3281174q0.90625 1.046875 2.28125 1.046875q1.34375 0 2.265625 -1.046875q0.921875 -1.046875 0.921875 -3.2656174q0 -2.125 -0.953125 -3.203125q-0.9375 -1.09375 -2.265625 -1.09375q-1.3125 0 -2.234375 1.078125q-0.921875 1.0625 -0.921875 3.15625zm11.185242 -7.75l0 -2.25l1.96875 0l0 2.25l-1.96875 0zm0 13.749992l0 -11.593742l1.96875 0l0 11.593742l-1.96875 0zm12.483154 0l0 -1.46875q-1.109375 1.734375 -3.25 1.734375q-1.390625 0 -2.546875 -0.765625q-1.15625 -0.765625 -1.796875 -2.125q-0.640625 -1.375 -0.640625 -3.1562424q0 -1.734375 0.578125 -3.140625q0.578125 -1.421875 1.734375 -2.171875q1.15625 -0.765625 2.59375 -0.765625q1.046875 0 1.859375 0.453125q0.828125 0.4375 1.328125 1.140625l0 -5.734375l1.953125 0l0 15.999992l-1.8125 0zm-6.21875 -5.7812424q0 2.2187424 0.9375 3.3281174q0.9375 1.09375 2.21875 1.09375q1.296875 0 2.1875 -1.046875q0.90625 -1.046875 0.90625 -3.21875q0 -2.3749924 -0.921875 -3.4843674q-0.921875 -1.125 -2.25 -1.125q-1.3125 0 -2.203125 1.078125q-0.875 1.0625 -0.875 3.375z" fill-rule="nonzero"/><path fill="#ffffff" d="m707.00476 97.38058l127.84253 0l0 56.62992l-127.84253 0z" fill-rule="evenodd"/><path stroke="#000000" stroke-width="1.6771653543307086" stroke-linejoin="round" stroke-linecap="butt" d="m707.00476 97.38058l127.84253 0l0 56.62992l-127.84253 0z" fill-rule="evenodd"/><path fill="#000000" d="m762.3557 133.66408l0 -2.234375l2.234375 0l0 2.234375l-2.234375 0zm7.453125 0l0 -2.234375l2.234375 0l0 2.234375l-2.234375 0zm7.453125 0l0 -2.234375l2.25 0l0 2.234375l-2.25 0z" fill-rule="nonzero"/><path fill="#ffffff" d="m834.8289 97.38058l127.84253 0l0 56.62992l-127.84253 0z" fill-rule="evenodd"/><path stroke="#000000" stroke-width="1.6771653543307086" stroke-linejoin="round" stroke-linecap="butt" d="m834.8289 97.38058l127.84253 0l0 56.62992l-127.84253 0z" fill-rule="evenodd"/><path fill="#000000" d="m878.09314 133.66408l0 -15.999992l6.046875 0q1.59375 0 2.4375 0.140625q1.171875 0.203125 1.96875 0.765625q0.796875 0.546875 1.28125 1.546875q0.484375 0.984375 0.484375 2.171875q0 2.046875 -1.296875 3.46875q-1.296875 1.40625 -4.6875 1.40625l-4.109375 0l0 6.4999924l-2.125 0zm2.125 -8.390617l4.140625 0q2.046875 0 2.90625 -0.765625q0.875 -0.765625 0.875 -2.15625q0 -1.0 -0.515625 -1.71875q-0.5 -0.71875 -1.34375 -0.9375q-0.53125 -0.140625 -1.96875 -0.140625l-4.09375 0l0 5.71875zm12.179138 9.343742l1.921875 0.296875q0.109375 0.875 0.65625 1.28125q0.734375 0.546875 2.0 0.546875q1.359375 0 2.09375 -0.546875q0.75 -0.546875 1.015625 -1.53125q0.15625 -0.59375 0.140625 -2.515625q-1.28125 1.515625 -3.203125 1.515625q-2.390625 0 -3.703125 -1.71875q-1.3125 -1.734375 -1.3125 -4.1406174q0 -1.65625 0.59375 -3.0625q0.609375 -1.40625 1.75 -2.171875q1.140625 -0.765625 2.6875 -0.765625q2.046875 0 3.375 1.65625l0 -1.390625l1.8125 0l0 10.015617q0 2.71875 -0.546875 3.84375q-0.546875 1.125 -1.75 1.78125q-1.1875 0.65625 -2.9375 0.65625q-2.078125 0 -3.359375 -0.9375q-1.28125 -0.921875 -1.234375 -2.8125zm1.625 -6.9531174q0 2.2812424 0.90625 3.3281174q0.90625 1.046875 2.28125 1.046875q1.34375 0 2.265625 -1.046875q0.921875 -1.046875 0.921875 -3.2656174q0 -2.125 -0.953125 -3.203125q-0.9375 -1.09375 -2.265625 -1.09375q-1.3125 0 -2.234375 1.078125q-0.921875 1.0625 -0.921875 3.15625zm11.185242 -7.75l0 -2.25l1.96875 0l0 2.25l-1.96875 0zm0 13.749992l0 -11.593742l1.96875 0l0 11.593742l-1.96875 0zm12.483154 0l0 -1.46875q-1.109375 1.734375 -3.25 1.734375q-1.390625 0 -2.546875 -0.765625q-1.15625 -0.765625 -1.796875 -2.125q-0.640625 -1.375 -0.640625 -3.1562424q0 -1.734375 0.578125 -3.140625q0.578125 -1.421875 1.734375 -2.171875q1.15625 -0.765625 2.59375 -0.765625q1.046875 0 1.859375 0.453125q0.828125 0.4375 1.328125 1.140625l0 -5.734375l1.953125 0l0 15.999992l-1.8125 0zm-6.21875 -5.7812424q0 2.2187424 0.9375 3.3281174q0.9375 1.09375 2.21875 1.09375q1.296875 0 2.1875 -1.046875q0.90625 -1.046875 0.90625 -3.21875q0 -2.3749924 -0.921875 -3.4843674q-0.921875 -1.125 -2.25 -1.125q-1.3125 0 -2.203125 1.078125q-0.875 1.0625 -0.875 3.375z" fill-rule="nonzero"/></g></svg>