<svg version="1.1" viewBox="0.0 0.0 1129.3595800524934 390.93175853018374" fill="none" stroke="none" stroke-linecap="square" stroke-miterlimit="10" xmlns:xlink="http://www.w3.org/1999/xlink" xmlns="http://www.w3.org/2000/svg"><clipPath id="p.0"><path d="m0 0l1129.3596 0l0 390.93176l-1129.3596 0l0 -390.93176z" clip-rule="nonzero"/></clipPath><g clip-path="url(#p.0)"><path fill="#ffffff" d="m0 0l1129.3596 0l0 390.93176l-1129.3596 0z" fill-rule="evenodd"/><path fill="#cccccc" d="m81.49606 87.91863l257.5748 0l0 56.62992l-257.5748 0z" fill-rule="evenodd"/><path stroke="#000000" stroke-width="1.6771653543307086" stroke-linejoin="round" stroke-linecap="butt" d="m81.49606 87.91863l257.5748 0l0 56.62992l-257.5748 0z" fill-rule="evenodd"/><path fill="#000000" d="m202.35318 109.72408l0 -2.484375l2.15625 0l0 2.484375l-2.15625 0zm0 15.125l0 -12.75l2.15625 0l0 12.75l-2.15625 0zm13.7139435 0l0 -1.609375q-1.203125 1.890625 -3.5625 1.890625q-1.53125 0 -2.8125 -0.828125q-1.265625 -0.84375 -1.96875 -2.34375q-0.703125 -1.515625 -0.703125 -3.46875q0 -1.921875 0.625 -3.46875q0.640625 -1.5625 1.90625 -2.390625q1.28125 -0.828125 2.859375 -0.828125q1.15625 0 2.046875 0.5q0.90625 0.484375 1.46875 1.265625l0 -6.328125l2.15625 0l0 17.609375l-2.015625 0zm-6.828125 -6.359375q0 2.4375 1.03125 3.65625q1.03125 1.21875 2.4375 1.21875q1.421875 0 2.40625 -1.15625q1.0 -1.171875 1.0 -3.546875q0 -2.609375 -1.015625 -3.828125q-1.015625 -1.234375 -2.484375 -1.234375q-1.4375 0 -2.40625 1.1875q-0.96875 1.171875 -0.96875 3.703125z" fill-rule="nonzero"/><path fill="#cccccc" d="m339.07672 87.91863l60.346436 0l0 56.62992l-60.346436 0z" fill-rule="evenodd"/><path stroke="#000000" stroke-width="1.6771653543307086" stroke-linejoin="round" stroke-linecap="butt" d="m339.07672 87.91863l60.346436 0l0 56.62992l-60.346436 0z" fill-rule="evenodd"/><path fill="#000000" d="m356.04547 120.467926l0 -5.03125l-0.859375 0l0 -0.765625l0.859375 0l0 -0.609375q0 -0.59375 0.109375 -0.875q0.140625 -0.375 0.5 -0.609375q0.359375 -0.25 1.0 -0.25q0.40625 0 0.90625 0.109375l-0.140625 0.859375q-0.3125 -0.0625 -0.578125 -0.0625q-0.453125 0 -0.640625 0.203125q-0.171875 0.1875 -0.171875 0.703125l0 0.53125l1.125 0l0 0.765625l-1.125 0l0 5.03125l-0.984375 0zm2.8539124 0l0 -8.0l0.984375 0l0 8.0l-0.984375 0zm6.2789 -0.71875q-0.546875 0.46875 -1.046875 0.65625q-0.5 0.1875 -1.078125 0.1875q-0.96875 0 -1.484375 -0.453125q-0.5 -0.46875 -0.5 -1.203125q0 -0.421875 0.1875 -0.765625q0.203125 -0.359375 0.515625 -0.5625q0.3125 -0.21875 0.703125 -0.328125q0.28125 -0.078125 0.875 -0.15625q1.1875 -0.140625 1.75 -0.328125q0 -0.203125 0 -0.265625q0 -0.59375 -0.28125 -0.84375q-0.375 -0.328125 -1.109375 -0.328125q-0.703125 0 -1.03125 0.25q-0.328125 0.234375 -0.484375 0.84375l-0.953125 -0.125q0.125 -0.609375 0.421875 -0.984375q0.296875 -0.390625 0.859375 -0.59375q0.578125 -0.203125 1.328125 -0.203125q0.734375 0 1.203125 0.171875q0.46875 0.171875 0.6875 0.4375q0.21875 0.265625 0.296875 0.671875q0.046875 0.25 0.046875 0.90625l0 1.3125q0 1.359375 0.0625 1.734375q0.0625 0.359375 0.25 0.6875l-1.015625 0q-0.15625 -0.3125 -0.203125 -0.71875zm-0.078125 -2.1875q-0.53125 0.21875 -1.609375 0.375q-0.609375 0.078125 -0.859375 0.1875q-0.25 0.109375 -0.390625 0.328125q-0.125 0.203125 -0.125 0.46875q0 0.390625 0.296875 0.65625q0.296875 0.25 0.875 0.25q0.5625 0 1.0 -0.25q0.4375 -0.25 0.65625 -0.671875q0.15625 -0.328125 0.15625 -0.984375l0 -0.359375zm2.3382874 3.390625l0.953125 0.140625q0.0625 0.4375 0.328125 0.640625q0.359375 0.265625 1.0 0.265625q0.6875 0 1.046875 -0.265625q0.375 -0.265625 0.5 -0.765625q0.078125 -0.296875 0.078125 -1.265625q-0.640625 0.765625 -1.609375 0.765625q-1.1875 0 -1.84375 -0.859375q-0.65625 -0.859375 -0.65625 -2.0625q0 -0.84375 0.296875 -1.53125q0.296875 -0.703125 0.859375 -1.078125q0.578125 -0.390625 1.359375 -0.390625q1.015625 0 1.6875 0.828125l0 -0.703125l0.90625 0l0 5.015625q0 1.34375 -0.28125 1.90625q-0.265625 0.578125 -0.875 0.890625q-0.59375 0.328125 -1.46875 0.328125q-1.03125 0 -1.671875 -0.46875q-0.640625 -0.453125 -0.609375 -1.390625zm0.8125 -3.484375q0 1.140625 0.453125 1.671875q0.453125 0.515625 1.125 0.515625q0.6875 0 1.140625 -0.515625q0.453125 -0.53125 0.453125 -1.640625q0 -1.0625 -0.46875 -1.59375q-0.46875 -0.546875 -1.140625 -0.546875q-0.65625 0 -1.109375 0.53125q-0.453125 0.53125 -0.453125 1.578125zm5.182007 1.265625l0.96875 -0.140625q0.078125 0.578125 0.453125 0.890625q0.375 0.3125 1.046875 0.3125q0.671875 0 1.0 -0.28125q0.328125 -0.28125 0.328125 -0.640625q0 -0.34375 -0.28125 -0.53125q-0.203125 -0.125 -1.0 -0.328125q-1.09375 -0.28125 -1.515625 -0.46875q-0.40625 -0.203125 -0.625 -0.546875q-0.21875 -0.359375 -0.21875 -0.78125q0 -0.390625 0.171875 -0.71875q0.1875 -0.328125 0.5 -0.546875q0.21875 -0.171875 0.609375 -0.28125q0.40625 -0.125 0.859375 -0.125q0.6875 0 1.203125 0.203125q0.515625 0.1875 0.75 0.53125q0.25 0.328125 0.34375 0.890625l-0.953125 0.125q-0.078125 -0.4375 -0.390625 -0.6875q-0.3125 -0.25 -0.875 -0.25q-0.6875 0 -0.984375 0.21875q-0.28125 0.21875 -0.28125 0.515625q0 0.203125 0.125 0.34375q0.125 0.15625 0.375 0.265625q0.140625 0.0625 0.859375 0.25q1.046875 0.28125 1.453125 0.46875q0.421875 0.171875 0.65625 0.515625q0.234375 0.328125 0.234375 0.828125q0 0.484375 -0.296875 0.921875q-0.28125 0.4375 -0.828125 0.671875q-0.53125 0.234375 -1.21875 0.234375q-1.125 0 -1.71875 -0.46875q-0.59375 -0.46875 -0.75 -1.390625z" fill-rule="nonzero"/><path fill="#cccccc" d="m399.40424 87.91863l60.346466 0l0 56.62992l-60.346466 0z" fill-rule="evenodd"/><path stroke="#000000" stroke-width="1.6771653543307086" stroke-linejoin="round" stroke-linecap="butt" d="m399.40424 87.91863l60.346466 0l0 56.62992l-60.346466 0z" fill-rule="evenodd"/><path fill="#000000" d="m419.91986 118.342926l0.96875 0.125q-0.15625 1.0 -0.8125 1.5625q-0.65625 0.5625 -1.59375 0.5625q-1.203125 0 -1.921875 -0.765625q-0.71875 -0.78125 -0.71875 -2.234375q0 -0.9375 0.3125 -1.640625q0.3125 -0.703125 0.9375 -1.046875q0.640625 -0.359375 1.390625 -0.359375q0.9375 0 1.53125 0.484375q0.609375 0.46875 0.78125 1.34375l-0.953125 0.15625q-0.140625 -0.59375 -0.484375 -0.875q-0.34375 -0.296875 -0.84375 -0.296875q-0.734375 0 -1.203125 0.53125q-0.453125 0.53125 -0.453125 1.671875q0 1.171875 0.4375 1.703125q0.453125 0.53125 1.171875 0.53125q0.578125 0 0.953125 -0.359375q0.390625 -0.359375 0.5 -1.09375zm1.4453125 -0.765625q0 -1.609375 0.890625 -2.390625q0.75 -0.640625 1.828125 -0.640625q1.1875 0 1.9375 0.78125q0.765625 0.78125 0.765625 2.15625q0 1.125 -0.34375 1.765625q-0.328125 0.640625 -0.96875 1.0q-0.640625 0.34375 -1.390625 0.34375q-1.21875 0 -1.96875 -0.765625q-0.75 -0.78125 -0.75 -2.25zm1.0 0q0 1.109375 0.484375 1.671875q0.484375 0.546875 1.234375 0.546875q0.71875 0 1.203125 -0.5625q0.5 -0.5625 0.5 -1.6875q0 -1.078125 -0.5 -1.625q-0.484375 -0.5625 -1.203125 -0.5625q-0.75 0 -1.234375 0.546875q-0.484375 0.546875 -0.484375 1.671875zm9.369537 2.890625l0 -0.84375q-0.671875 0.96875 -1.84375 0.96875q-0.5 0 -0.953125 -0.1875q-0.4375 -0.203125 -0.65625 -0.5q-0.21875 -0.296875 -0.296875 -0.71875q-0.0625 -0.296875 -0.0625 -0.921875l0 -3.59375l0.984375 0l0 3.21875q0 0.765625 0.046875 1.03125q0.09375 0.390625 0.390625 0.609375q0.3125 0.21875 0.75 0.21875q0.4375 0 0.828125 -0.21875q0.390625 -0.234375 0.546875 -0.625q0.15625 -0.390625 0.15625 -1.125l0 -3.109375l0.984375 0l0 5.796875l-0.875 0zm2.4163818 0l0 -5.796875l0.890625 0l0 0.828125q0.640625 -0.953125 1.84375 -0.953125q0.515625 0 0.953125 0.1875q0.4375 0.1875 0.65625 0.5q0.21875 0.296875 0.3125 0.71875q0.046875 0.265625 0.046875 0.953125l0 3.5625l-0.96875 0l0 -3.53125q0 -0.59375 -0.125 -0.890625q-0.109375 -0.296875 -0.40625 -0.46875q-0.28125 -0.1875 -0.6875 -0.1875q-0.625 0 -1.078125 0.40625q-0.453125 0.390625 -0.453125 1.515625l0 3.15625l-0.984375 0zm8.353912 -0.875l0.140625 0.859375q-0.40625 0.09375 -0.734375 0.09375q-0.53125 0 -0.828125 -0.171875q-0.296875 -0.171875 -0.421875 -0.4375q-0.109375 -0.28125 -0.109375 -1.171875l0 -3.328125l-0.71875 0l0 -0.765625l0.71875 0l0 -1.4375l0.96875 -0.578125l0 2.015625l0.984375 0l0 0.765625l-0.984375 0l0 3.390625q0 0.421875 0.046875 0.546875q0.0625 0.109375 0.171875 0.1875q0.125 0.0625 0.34375 0.0625q0.15625 0 0.421875 -0.03125z" fill-rule="nonzero"/><path fill="#cccccc" d="m459.73178 87.91863l127.8425 0l0 56.62992l-127.8425 0z" fill-rule="evenodd"/><path stroke="#000000" stroke-width="1.6771653543307086" stroke-linejoin="round" stroke-linecap="butt" d="m459.73178 87.91863l127.8425 0l0 56.62992l-127.8425 0z" fill-rule="evenodd"/><path fill="#000000" d="m482.774 118.405266q0 -3.21875 1.78125 -4.765625q1.5 -1.296875 3.640625 -1.296875q2.40625 0 3.921875 1.578125q1.515625 1.5625 1.515625 4.3125q0 2.25 -0.671875 3.53125q-0.671875 1.28125 -1.953125 2.0q-1.28125 0.703125 -2.8125 0.703125q-2.421875 0 -3.921875 -1.5625q-1.5 -1.5625 -1.5 -4.5zm2.015625 0q0 2.234375 0.96875 3.34375q0.96875 1.09375 2.4375 1.09375q1.46875 0 2.4375 -1.109375q0.96875 -1.109375 0.96875 -3.390625q0 -2.15625 -0.984375 -3.265625q-0.96875 -1.109375 -2.421875 -1.109375q-1.46875 0 -2.4375 1.109375q-0.96875 1.09375 -0.96875 3.328125zm14.357086 5.796875l-4.40625 -11.59375l2.078125 0l2.484375 6.9375q0.40625 1.125 0.75 2.34375q0.265625 -0.921875 0.734375 -2.203125l2.5625 -7.078125l2.03125 0l-4.390625 11.59375l-1.84375 0zm15.898468 -3.734375l2.03125 0.25q-0.46875 1.78125 -1.78125 2.765625q-1.296875 0.984375 -3.3125305 0.984375q-2.546875 0 -4.046875 -1.5625q-1.484375 -1.578125 -1.484375 -4.40625q0 -2.921875 1.5 -4.53125q1.515625 -1.625 3.921875 -1.625q2.3281555 0 3.7969055 1.59375q1.46875 1.578125 1.46875 4.453125q0 0.171875 0 0.515625l-8.6562805 0q0.109375 1.90625 1.078125 2.921875q0.984375 1.015625 2.4375 1.015625q1.0781555 0 1.8437805 -0.5625q0.765625 -0.5625 1.203125 -1.8125zm-6.4531555 -3.171875l6.4844055 0q-0.140625 -1.46875 -0.75 -2.203125q-0.9375 -1.125 -2.4375305 -1.125q-1.34375 0 -2.265625 0.90625q-0.921875 0.90625 -1.03125 2.421875zm10.935211 6.90625l0 -11.59375l1.765625 0l0 1.75q0.671875 -1.234375 1.25 -1.625q0.578125 -0.390625 1.265625 -0.390625q0.984375 0 2.015625 0.640625l-0.671875 1.8125q-0.71875 -0.421875 -1.4375 -0.421875q-0.65625 0 -1.171875 0.390625q-0.5 0.390625 -0.71875 1.078125q-0.328125 1.046875 -0.328125 2.296875l0 6.0625l-1.96875 0zm7.930237 0l0 -10.0625l-1.734375 0l0 -1.53125l1.734375 0l0 -1.234375q0 -1.171875 0.21875 -1.734375q0.28125 -0.765625 0.984375 -1.234375q0.71875 -0.484375 2.015625 -0.484375q0.828125 0 1.828125 0.203125l-0.296875 1.703125q-0.609375 -0.109375 -1.15625 -0.109375q-0.890625 0 -1.265625 0.390625q-0.375 0.375 -0.375 1.421875l0 1.078125l2.265625 0l0 1.53125l-2.265625 0l0 10.0625l-1.953125 0zm5.712158 0l0 -16.0l1.953125 0l0 16.0l-1.953125 0zm4.2800293 -5.796875q0 -3.21875 1.78125 -4.765625q1.5 -1.296875 3.640625 -1.296875q2.40625 0 3.921875 1.578125q1.515625 1.5625 1.515625 4.3125q0 2.25 -0.671875 3.53125q-0.671875 1.28125 -1.953125 2.0q-1.28125 0.703125 -2.8125 0.703125q-2.421875 0 -3.921875 -1.5625q-1.5 -1.5625 -1.5 -4.5zm2.015625 0q0 2.234375 0.96875 3.34375q0.96875 1.09375 2.4375 1.09375q1.46875 0 2.4375 -1.109375q0.96875 -1.109375 0.96875 -3.390625q0 -2.15625 -0.984375 -3.265625q-0.96875 -1.109375 -2.421875 -1.109375q-1.46875 0 -2.4375 1.109375q-0.96875 1.09375 -0.96875 3.328125zm13.278992 5.796875l-3.546875 -11.59375l2.03125 0l1.84375 6.6875l0.6875 2.5q0.046875 -0.1875 0.609375 -2.390625l1.84375 -6.796875l2.015625 0l1.734375 6.71875l0.578125 2.21875l0.671875 -2.234375l1.984375 -6.703125l1.90625 0l-3.625 11.59375l-2.03125 0l-1.84375 -6.9375l-0.453125 -1.984375l-2.34375 8.921875l-2.0625 0z" fill-rule="nonzero"/><path fill="#ffffff" d="m587.5757 87.91863l360.9134 0l0 56.62992l-360.9134 0z" fill-rule="evenodd"/><path stroke="#000000" stroke-width="1.6771653543307086" stroke-linejoin="round" stroke-linecap="butt" d="m587.5757 87.91863l360.9134 0l0 56.62992l-360.9134 0z" fill-rule="evenodd"/><path fill="#000000" d="m719.7657 128.63963l0 -16.031242l1.796875 0l0 1.5q0.625 -0.875 1.421875 -1.3125q0.796875 -0.453125 1.9375 -0.453125q1.484375 0 2.609375 0.765625q1.140625 0.765625 1.71875 2.15625q0.59375 1.390625 0.59375 3.046875q0 1.78125 -0.640625 3.21875q-0.640625 1.421875 -1.859375 2.1875q-1.21875 0.75 -2.5625 0.75q-0.984375 0 -1.765625 -0.40625q-0.78125 -0.421875 -1.28125 -1.0625l0 5.6406174l-1.96875 0zm1.78125 -10.171867q0 2.234375 0.90625 3.3125q0.90625 1.0625 2.203125 1.0625q1.3125 0 2.234375 -1.09375q0.9375 -1.109375 0.9375 -3.4375q0 -2.21875 -0.921875 -3.3125q-0.90625 -1.109375 -2.171875 -1.109375q-1.25 0 -2.21875 1.171875q-0.96875 1.171875 -0.96875 3.40625zm18.232117 4.296875q-1.09375 0.9375 -2.109375 1.328125q-1.015625 0.375 -2.171875 0.375q-1.90625 0 -2.9375 -0.9375q-1.015625 -0.9375 -1.015625 -2.390625q0 -0.84375 0.375 -1.546875q0.390625 -0.703125 1.015625 -1.125q0.640625 -0.4375 1.421875 -0.65625q0.578125 -0.15625 1.75 -0.296875q2.375 -0.28125 3.5 -0.671875q0.015625 -0.40625 0.015625 -0.515625q0 -1.203125 -0.5625 -1.6875q-0.75 -0.671875 -2.234375 -0.671875q-1.390625 0 -2.046875 0.484375q-0.65625 0.484375 -0.984375 1.71875l-1.921875 -0.25q0.265625 -1.234375 0.859375 -1.984375q0.609375 -0.765625 1.734375 -1.171875q1.140625 -0.421875 2.640625 -0.421875q1.484375 0 2.40625 0.359375q0.9375 0.34375 1.375 0.875q0.4375 0.53125 0.609375 1.328125q0.09375 0.515625 0.09375 1.8125l0 2.625q0 2.734375 0.125 3.46875q0.125 0.71875 0.5 1.390625l-2.046875 0q-0.3125 -0.609375 -0.390625 -1.4375zm-0.171875 -4.375q-1.0625 0.4375 -3.203125 0.734375q-1.21875 0.171875 -1.71875 0.390625q-0.5 0.21875 -0.78125 0.640625q-0.265625 0.421875 -0.265625 0.9375q0 0.78125 0.59375 1.3125q0.59375 0.515625 1.734375 0.515625q1.140625 0 2.015625 -0.484375q0.890625 -0.5 1.3125 -1.375q0.3125 -0.65625 0.3125 -1.953125l0 -0.71875zm4.6696167 6.765625l1.921875 0.296875q0.109375 0.875 0.65625 1.28125q0.734375 0.546875 2.0 0.546875q1.359375 0 2.09375 -0.546875q0.75 -0.546875 1.015625 -1.53125q0.15625 -0.59375 0.140625 -2.515625q-1.28125 1.515625 -3.203125 1.515625q-2.390625 0 -3.703125 -1.71875q-1.3125 -1.734375 -1.3125 -4.140625q0 -1.65625 0.59375 -3.0625q0.609375 -1.40625 1.75 -2.171875q1.140625 -0.765625 2.6875 -0.765625q2.046875 0 3.375 1.65625l0 -1.390625l1.8125 0l0 10.015625q0 2.71875 -0.546875 3.84375q-0.546875 1.125 -1.75 1.7812424q-1.1875 0.65625 -2.9375 0.65625q-2.078125 0 -3.359375 -0.9374924q-1.28125 -0.921875 -1.234375 -2.8125zm1.625 -6.953125q0 2.28125 0.90625 3.328125q0.90625 1.046875 2.28125 1.046875q1.34375 0 2.265625 -1.046875q0.921875 -1.046875 0.921875 -3.265625q0 -2.125 -0.953125 -3.203125q-0.9375 -1.09375 -2.265625 -1.09375q-1.3125 0 -2.234375 1.078125q-0.921875 1.0625 -0.921875 3.15625zm19.107117 2.265625l2.03125 0.25q-0.46875 1.78125 -1.78125 2.765625q-1.296875 0.984375 -3.3125 0.984375q-2.546875 0 -4.046875 -1.5625q-1.484375 -1.578125 -1.484375 -4.40625q0 -2.921875 1.5 -4.53125q1.515625 -1.625 3.921875 -1.625q2.328125 0 3.796875 1.59375q1.46875 1.578125 1.46875 4.453125q0 0.171875 0 0.515625l-8.65625 0q0.109375 1.90625 1.078125 2.921875q0.984375 1.015625 2.4375 1.015625q1.078125 0 1.84375 -0.5625q0.765625 -0.5625 1.203125 -1.8125zm-6.453125 -3.171875l6.484375 0q-0.140625 -1.46875 -0.75 -2.203125q-0.9375 -1.125 -2.4375 -1.125q-1.34375 0 -2.265625 0.90625q-0.921875 0.90625 -1.03125 2.421875zm24.694214 6.90625l0 -1.46875q-1.109375 1.734375 -3.25 1.734375q-1.390625 0 -2.546875 -0.765625q-1.15625 -0.765625 -1.796875 -2.125q-0.640625 -1.375 -0.640625 -3.15625q0 -1.734375 0.578125 -3.140625q0.578125 -1.421875 1.734375 -2.171875q1.15625 -0.765625 2.59375 -0.765625q1.046875 0 1.859375 0.453125q0.828125 0.4375 1.328125 1.140625l0 -5.734375l1.953125 0l0 16.0l-1.8125 0zm-6.21875 -5.78125q0 2.21875 0.9375 3.328125q0.9375 1.09375 2.21875 1.09375q1.296875 0 2.1875 -1.046875q0.90625 -1.046875 0.90625 -3.21875q0 -2.375 -0.921875 -3.484375q-0.921875 -1.125 -2.25 -1.125q-1.3125 0 -2.203125 1.078125q-0.875 1.0625 -0.875 3.375zm18.700867 4.34375q-1.09375 0.9375 -2.109375 1.328125q-1.015625 0.375 -2.171875 0.375q-1.90625 0 -2.9375 -0.9375q-1.015625 -0.9375 -1.015625 -2.390625q0 -0.84375 0.375 -1.546875q0.390625 -0.703125 1.015625 -1.125q0.640625 -0.4375 1.421875 -0.65625q0.578125 -0.15625 1.75 -0.296875q2.375 -0.28125 3.5 -0.671875q0.015625 -0.40625 0.015625 -0.515625q0 -1.203125 -0.5625 -1.6875q-0.75 -0.671875 -2.234375 -0.671875q-1.390625 0 -2.046875 0.484375q-0.65625 0.484375 -0.984375 1.71875l-1.921875 -0.25q0.265625 -1.234375 0.859375 -1.984375q0.609375 -0.765625 1.734375 -1.171875q1.140625 -0.421875 2.640625 -0.421875q1.484375 0 2.40625 0.359375q0.9375 0.34375 1.375 0.875q0.4375 0.53125 0.609375 1.328125q0.09375 0.515625 0.09375 1.8125l0 2.625q0 2.734375 0.125 3.46875q0.125 0.71875 0.5 1.390625l-2.046875 0q-0.3125 -0.609375 -0.390625 -1.4375zm-0.171875 -4.375q-1.0625 0.4375 -3.203125 0.734375q-1.21875 0.171875 -1.71875 0.390625q-0.5 0.21875 -0.78125 0.640625q-0.265625 0.421875 -0.265625 0.9375q0 0.78125 0.59375 1.3125q0.59375 0.515625 1.734375 0.515625q1.140625 0 2.015625 -0.484375q0.890625 -0.5 1.3125 -1.375q0.3125 -0.65625 0.3125 -1.953125l0 -0.71875zm9.325867 4.0625l0.28125 1.734375q-0.828125 0.171875 -1.484375 0.171875q-1.0625 0 -1.65625 -0.34375q-0.59375 -0.34375 -0.84375 -0.890625q-0.234375 -0.546875 -0.234375 -2.3125l0 -6.671875l-1.4375 0l0 -1.53125l1.4375 0l0 -2.875l1.953125 -1.171875l0 4.046875l1.984375 0l0 1.53125l-1.984375 0l0 6.78125q0 0.828125 0.109375 1.078125q0.109375 0.234375 0.34375 0.375q0.234375 0.140625 0.671875 0.140625q0.328125 0 0.859375 -0.0625zm9.493408 0.3125q-1.09375 0.9375 -2.109375 1.328125q-1.015625 0.375 -2.171875 0.375q-1.90625 0 -2.9375 -0.9375q-1.015625 -0.9375 -1.015625 -2.390625q0 -0.84375 0.375 -1.546875q0.390625 -0.703125 1.015625 -1.125q0.640625 -0.4375 1.421875 -0.65625q0.578125 -0.15625 1.75 -0.296875q2.375 -0.28125 3.5 -0.671875q0.015625 -0.40625 0.015625 -0.515625q0 -1.203125 -0.5625 -1.6875q-0.75 -0.671875 -2.234375 -0.671875q-1.390625 0 -2.046875 0.484375q-0.65625 0.484375 -0.984375 1.71875l-1.921875 -0.25q0.265625 -1.234375 0.859375 -1.984375q0.609375 -0.765625 1.734375 -1.171875q1.140625 -0.421875 2.640625 -0.421875q1.484375 0 2.40625 0.359375q0.9375 0.34375 1.375 0.875q0.4375 0.53125 0.609375 1.328125q0.09375 0.515625 0.09375 1.8125l0 2.625q0 2.734375 0.125 3.46875q0.125 0.71875 0.5 1.390625l-2.046875 0q-0.3125 -0.609375 -0.390625 -1.4375zm-0.171875 -4.375q-1.0625 0.4375 -3.203125 0.734375q-1.21875 0.171875 -1.71875 0.390625q-0.5 0.21875 -0.78125 0.640625q-0.265625 0.421875 -0.265625 0.9375q0 0.78125 0.59375 1.3125q0.59375 0.515625 1.734375 0.515625q1.140625 0 2.015625 -0.484375q0.890625 -0.5 1.3125 -1.375q0.3125 -0.65625 0.3125 -1.953125l0 -0.71875z" fill-rule="nonzero"/><path fill="#ffffff" d="m81.49614 212.22572l53.88977 0l0 37.448822l-53.88977 0z" fill-rule="evenodd"/><path stroke="#000000" stroke-width="1.110236220472441" stroke-linejoin="round" stroke-linecap="butt" d="m81.49614 212.22572l53.88977 0l0 37.448822l-53.88977 0z" fill-rule="evenodd"/><path fill="#000000" d="m94.11102 236.14789l0 -6.65625l-1.140625 0l0 -1.015625l1.140625 0l0 -0.8125q0 -0.765625 0.140625 -1.140625q0.1875 -0.515625 0.65625 -0.828125q0.484375 -0.3125 1.328125 -0.3125q0.546875 0 1.21875 0.140625l-0.203125 1.125q-0.40625 -0.0625 -0.765625 -0.0625q-0.59375 0 -0.84375 0.25q-0.234375 0.25 -0.234375 0.9375l0 0.703125l1.5 0l0 1.015625l-1.5 0l0 6.65625l-1.296875 0zm3.7785797 0l0 -10.578125l1.296875 0l0 10.578125l-1.296875 0zm8.299545 -0.953125q-0.71875 0.625 -1.390625 0.875q-0.65625 0.25 -1.421875 0.25q-1.265625 0 -1.953125 -0.609375q-0.671875 -0.625 -0.671875 -1.578125q0 -0.5625 0.25 -1.03125q0.265625 -0.46875 0.671875 -0.75q0.421875 -0.28125 0.9375 -0.421875q0.390625 -0.109375 1.15625 -0.203125q1.578125 -0.1875 2.328125 -0.4375q0 -0.265625 0 -0.34375q0 -0.796875 -0.375 -1.125q-0.484375 -0.4375 -1.46875 -0.4375q-0.921875 0 -1.359375 0.328125q-0.4375 0.3125 -0.640625 1.125l-1.265625 -0.171875q0.171875 -0.8125 0.5625 -1.3125q0.390625 -0.5 1.140625 -0.765625q0.75 -0.28125 1.75 -0.28125q0.984375 0 1.59375 0.234375q0.609375 0.234375 0.890625 0.59375q0.296875 0.34375 0.40625 0.875q0.078125 0.328125 0.078125 1.203125l0 1.71875q0 1.8125 0.078125 2.296875q0.078125 0.484375 0.328125 0.921875l-1.359375 0q-0.203125 -0.40625 -0.265625 -0.953125zm-0.09375 -2.890625q-0.71875 0.28125 -2.125 0.484375q-0.8125 0.125 -1.140625 0.265625q-0.328125 0.140625 -0.515625 0.421875q-0.171875 0.28125 -0.171875 0.609375q0 0.53125 0.390625 0.875q0.390625 0.34375 1.15625 0.34375q0.75 0 1.328125 -0.328125q0.59375 -0.328125 0.859375 -0.90625q0.21875 -0.4375 0.21875 -1.296875l0 -0.46875zm3.0800018 4.484375l1.265625 0.1875q0.078125 0.578125 0.4375 0.84375q0.484375 0.359375 1.328125 0.359375q0.890625 0 1.375 -0.359375q0.5 -0.359375 0.671875 -1.015625q0.109375 -0.390625 0.09375 -1.65625q-0.84375 1.0 -2.109375 1.0q-1.59375 0 -2.46875 -1.140625q-0.859375 -1.140625 -0.859375 -2.734375q0 -1.09375 0.390625 -2.015625q0.40625 -0.9375 1.15625 -1.4375q0.765625 -0.515625 1.78125 -0.515625q1.359375 0 2.234375 1.109375l0 -0.9375l1.203125 0l0 6.625q0 1.796875 -0.375 2.546875q-0.359375 0.75 -1.15625 1.171875q-0.78125 0.4375 -1.9375 0.4375q-1.375 0 -2.21875 -0.625q-0.84375 -0.609375 -0.8125 -1.84375zm1.078125 -4.609375q0 1.5 0.59375 2.203125q0.609375 0.6875 1.5 0.6875q0.90625 0 1.5 -0.6875q0.609375 -0.6875 0.609375 -2.15625q0 -1.40625 -0.625 -2.125q-0.625 -0.71875 -1.5 -0.71875q-0.859375 0 -1.46875 0.703125q-0.609375 0.703125 -0.609375 2.09375zm6.861252 1.6875l1.28125 -0.203125q0.109375 0.765625 0.609375 1.1875q0.5 0.40625 1.375 0.40625q0.90625 0 1.328125 -0.359375q0.4375 -0.375 0.4375 -0.859375q0 -0.453125 -0.375 -0.703125q-0.28125 -0.171875 -1.328125 -0.4375q-1.4375 -0.359375 -2.0 -0.625q-0.546875 -0.265625 -0.828125 -0.71875q-0.28125 -0.46875 -0.28125 -1.03125q0 -0.515625 0.234375 -0.953125q0.234375 -0.4375 0.640625 -0.71875q0.296875 -0.234375 0.8125 -0.390625q0.53125 -0.15625 1.140625 -0.15625q0.890625 0 1.578125 0.265625q0.6875 0.265625 1.0 0.703125q0.328125 0.4375 0.453125 1.1875l-1.265625 0.171875q-0.09375 -0.59375 -0.515625 -0.921875q-0.40625 -0.328125 -1.15625 -0.328125q-0.90625 0 -1.296875 0.296875q-0.375 0.296875 -0.375 0.6875q0 0.25 0.15625 0.453125q0.171875 0.21875 0.5 0.34375q0.203125 0.078125 1.15625 0.34375q1.375 0.359375 1.921875 0.59375q0.546875 0.234375 0.859375 0.6875q0.3125 0.4375 0.3125 1.109375q0 0.640625 -0.390625 1.21875q-0.375 0.578125 -1.09375 0.890625q-0.703125 0.3125 -1.609375 0.3125q-1.5 0 -2.28125 -0.609375q-0.78125 -0.625 -1.0 -1.84375z" fill-rule="nonzero"/><path fill="#ffffff" d="m135.38142 212.22572l53.889755 0l0 37.448822l-53.889755 0z" fill-rule="evenodd"/><path stroke="#000000" stroke-width="1.110236220472441" stroke-linejoin="round" stroke-linecap="butt" d="m135.38142 212.22572l53.889755 0l0 37.448822l-53.889755 0z" fill-rule="evenodd"/><path fill="#000000" d="m151.3791 239.08539l0 -10.609375l1.1875 0l0 1.0q0.421875 -0.578125 0.9375 -0.875q0.53125 -0.296875 1.28125 -0.296875q0.984375 0 1.734375 0.515625q0.75 0.5 1.125 1.421875q0.390625 0.921875 0.390625 2.015625q0 1.171875 -0.421875 2.125q-0.421875 0.9375 -1.234375 1.4375q-0.796875 0.5 -1.6875 0.5q-0.640625 0 -1.15625 -0.265625q-0.515625 -0.28125 -0.84375 -0.703125l0 3.734375l-1.3125 0zm1.1875 -6.734375q0 1.484375 0.59375 2.203125q0.59375 0.703125 1.453125 0.703125q0.859375 0 1.46875 -0.734375q0.625 -0.734375 0.625 -2.265625q0 -1.46875 -0.609375 -2.203125q-0.59375 -0.734375 -1.421875 -0.734375q-0.84375 0 -1.484375 0.78125q-0.625 0.78125 -0.625 2.25zm6.548752 -0.03125q0 -2.140625 1.1875 -3.15625q0.984375 -0.859375 2.40625 -0.859375q1.59375 0 2.59375 1.046875q1.0 1.03125 1.0 2.859375q0 1.46875 -0.453125 2.328125q-0.4375 0.84375 -1.28125 1.3125q-0.84375 0.46875 -1.859375 0.46875q-1.609375 0 -2.609375 -1.03125q-0.984375 -1.03125 -0.984375 -2.96875zm1.34375 0q0 1.46875 0.640625 2.203125q0.640625 0.734375 1.609375 0.734375q0.96875 0 1.609375 -0.734375q0.65625 -0.75 0.65625 -2.25q0 -1.421875 -0.65625 -2.15625q-0.640625 -0.734375 -1.609375 -0.734375q-0.96875 0 -1.609375 0.734375q-0.640625 0.71875 -0.640625 2.203125zm6.845627 1.546875l1.28125 -0.203125q0.109375 0.765625 0.609375 1.1875q0.5 0.40625 1.375 0.40625q0.90625 0 1.328125 -0.359375q0.4375 -0.375 0.4375 -0.859375q0 -0.453125 -0.375 -0.703125q-0.28125 -0.171875 -1.328125 -0.4375q-1.4375 -0.359375 -2.0 -0.625q-0.546875 -0.265625 -0.828125 -0.71875q-0.28125 -0.46875 -0.28125 -1.03125q0 -0.515625 0.234375 -0.953125q0.234375 -0.4375 0.640625 -0.71875q0.296875 -0.234375 0.8125 -0.390625q0.53125 -0.15625 1.140625 -0.15625q0.890625 0 1.578125 0.265625q0.6875 0.265625 1.0 0.703125q0.328125 0.4375 0.453125 1.1875l-1.265625 0.171875q-0.09375 -0.59375 -0.515625 -0.921875q-0.40625 -0.328125 -1.15625 -0.328125q-0.90625 0 -1.296875 0.296875q-0.375 0.296875 -0.375 0.6875q0 0.25 0.15625 0.453125q0.171875 0.21875 0.5 0.34375q0.203125 0.078125 1.15625 0.34375q1.375 0.359375 1.921875 0.59375q0.546875 0.234375 0.859375 0.6875q0.3125 0.4375 0.3125 1.109375q0 0.640625 -0.390625 1.21875q-0.375 0.578125 -1.09375 0.890625q-0.703125 0.3125 -1.609375 0.3125q-1.5 0 -2.28125 -0.609375q-0.78125 -0.625 -1.0 -1.84375z" fill-rule="nonzero"/><path fill="#ffffff" d="m189.26653 212.22572l62.582672 0l0 37.448822l-62.582672 0z" fill-rule="evenodd"/><path stroke="#000000" stroke-width="1.110236220472441" stroke-linejoin="round" stroke-linecap="butt" d="m189.26653 212.22572l62.582672 0l0 37.448822l-62.582672 0z" fill-rule="evenodd"/><path fill="#000000" d="m204.70403 236.14789l0 -10.578125l1.296875 0l0 6.03125l3.078125 -3.125l1.671875 0l-2.921875 2.84375l3.21875 4.828125l-1.59375 0l-2.53125 -3.921875l-0.921875 0.890625l0 3.03125l-1.296875 0zm6.859375 -2.28125l1.28125 -0.203125q0.109375 0.765625 0.609375 1.1875q0.5 0.40625 1.375 0.40625q0.90625 0 1.328125 -0.359375q0.4375 -0.375 0.4375 -0.859375q0 -0.453125 -0.375 -0.703125q-0.28125 -0.171875 -1.328125 -0.4375q-1.4375 -0.359375 -2.0 -0.625q-0.546875 -0.265625 -0.828125 -0.71875q-0.28125 -0.46875 -0.28125 -1.03125q0 -0.515625 0.234375 -0.953125q0.234375 -0.4375 0.640625 -0.71875q0.296875 -0.234375 0.8125 -0.390625q0.53125 -0.15625 1.140625 -0.15625q0.890625 0 1.578125 0.265625q0.6875 0.265625 1.0 0.703125q0.328125 0.4375 0.453125 1.1875l-1.265625 0.171875q-0.09375 -0.59375 -0.515625 -0.921875q-0.40625 -0.328125 -1.15625 -0.328125q-0.90625 0 -1.296875 0.296875q-0.375 0.296875 -0.375 0.6875q0 0.25 0.15625 0.453125q0.171875 0.21875 0.5 0.34375q0.203125 0.078125 1.15625 0.34375q1.375 0.359375 1.921875 0.59375q0.546875 0.234375 0.859375 0.6875q0.3125 0.4375 0.3125 1.109375q0 0.640625 -0.390625 1.21875q-0.375 0.578125 -1.09375 0.890625q-0.703125 0.3125 -1.609375 0.3125q-1.5 0 -2.28125 -0.609375q-0.78125 -0.625 -1.0 -1.84375zm7.921875 -6.8125l0 -1.484375l1.296875 0l0 1.484375l-1.296875 0zm0 9.09375l0 -7.671875l1.296875 0l0 7.671875l-1.296875 0zm2.5807953 0l0 -1.046875l4.890625 -5.609375q-0.828125 0.046875 -1.46875 0.046875l-3.125 0l0 -1.0625l6.265625 0l0 0.859375l-4.15625 4.875l-0.796875 0.890625q0.875 -0.078125 1.640625 -0.078125l3.546875 0l0 1.125l-6.796875 0zm13.328125 -2.46875l1.34375 0.171875q-0.3125 1.171875 -1.171875 1.828125q-0.859375 0.640625 -2.203125 0.640625q-1.671875 0 -2.65625 -1.03125q-0.984375 -1.03125 -0.984375 -2.90625q0 -1.9375 0.984375 -3.0q1.0 -1.078125 2.59375 -1.078125q1.53125 0 2.5 1.046875q0.984375 1.046875 0.984375 2.953125q0 0.109375 -0.015625 0.34375l-5.703125 0q0.0625 1.265625 0.703125 1.9375q0.640625 0.671875 1.609375 0.671875q0.71875 0 1.21875 -0.375q0.5 -0.375 0.796875 -1.203125zm-4.265625 -2.09375l4.28125 0q-0.078125 -0.96875 -0.484375 -1.453125q-0.625 -0.75 -1.609375 -0.75q-0.90625 0 -1.515625 0.59375q-0.609375 0.59375 -0.671875 1.609375z" fill-rule="nonzero"/><path fill="#ffffff" d="m251.84108 212.22572l62.582657 0l0 37.448822l-62.582657 0z" fill-rule="evenodd"/><path stroke="#000000" stroke-width="1.110236220472441" stroke-linejoin="round" stroke-linecap="butt" d="m251.84108 212.22572l62.582657 0l0 37.448822l-62.582657 0z" fill-rule="evenodd"/><path fill="#000000" d="m269.40356 236.14789l-2.921875 -7.671875l1.375 0l1.640625 4.59375q0.265625 0.75 0.5 1.546875q0.171875 -0.609375 0.46875 -1.453125l1.703125 -4.6875l1.34375 0l-2.90625 7.671875l-1.203125 0zm4.734375 -2.28125l1.28125 -0.203125q0.109375 0.765625 0.609375 1.1875q0.5 0.40625 1.375 0.40625q0.90625 0 1.328125 -0.359375q0.4375 -0.375 0.4375 -0.859375q0 -0.453125 -0.375 -0.703125q-0.28125 -0.171875 -1.328125 -0.4375q-1.4375 -0.359375 -2.0 -0.625q-0.546875 -0.265625 -0.828125 -0.71875q-0.28125 -0.46875 -0.28125 -1.03125q0 -0.515625 0.234375 -0.953125q0.234375 -0.4375 0.640625 -0.71875q0.296875 -0.234375 0.8125 -0.390625q0.53125 -0.15625 1.140625 -0.15625q0.890625 0 1.578125 0.265625q0.6875 0.265625 1.0 0.703125q0.328125 0.4375 0.453125 1.1875l-1.265625 0.171875q-0.09375 -0.59375 -0.515625 -0.921875q-0.40625 -0.328125 -1.15625 -0.328125q-0.90625 0 -1.296875 0.296875q-0.375 0.296875 -0.375 0.6875q0 0.25 0.15625 0.453125q0.171875 0.21875 0.5 0.34375q0.203125 0.078125 1.15625 0.34375q1.375 0.359375 1.921875 0.59375q0.546875 0.234375 0.859375 0.6875q0.3125 0.4375 0.3125 1.109375q0 0.640625 -0.390625 1.21875q-0.375 0.578125 -1.09375 0.890625q-0.703125 0.3125 -1.609375 0.3125q-1.5 0 -2.28125 -0.609375q-0.78125 -0.625 -1.0 -1.84375zm7.921875 -6.8125l0 -1.484375l1.296875 0l0 1.484375l-1.296875 0zm0 9.09375l0 -7.671875l1.296875 0l0 7.671875l-1.296875 0zm2.5808105 0l0 -1.046875l4.890625 -5.609375q-0.828125 0.046875 -1.46875 0.046875l-3.125 0l0 -1.0625l6.265625 0l0 0.859375l-4.15625 4.875l-0.796875 0.890625q0.875 -0.078125 1.640625 -0.078125l3.546875 0l0 1.125l-6.796875 0zm13.328125 -2.46875l1.34375 0.171875q-0.3125 1.171875 -1.171875 1.828125q-0.859375 0.640625 -2.203125 0.640625q-1.671875 0 -2.65625 -1.03125q-0.984375 -1.03125 -0.984375 -2.90625q0 -1.9375 0.984375 -3.0q1.0 -1.078125 2.59375 -1.078125q1.53125 0 2.5 1.046875q0.984375 1.046875 0.984375 2.953125q0 0.109375 -0.015625 0.34375l-5.703125 0q0.0625 1.265625 0.703125 1.9375q0.640625 0.671875 1.609375 0.671875q0.71875 0 1.21875 -0.375q0.5 -0.375 0.796875 -1.203125zm-4.265625 -2.09375l4.28125 0q-0.078125 -0.96875 -0.484375 -1.453125q-0.625 -0.75 -1.609375 -0.75q-0.90625 0 -1.515625 0.59375q-0.609375 0.59375 -0.671875 1.609375z" fill-rule="nonzero"/><path fill="#ffffff" d="m313.11426 212.22572l53.88977 0l0 37.448822l-53.88977 0z" fill-rule="evenodd"/><path stroke="#000000" stroke-width="1.110236220472441" stroke-linejoin="round" stroke-linecap="butt" d="m313.11426 212.22572l53.88977 0l0 37.448822l-53.88977 0z" fill-rule="evenodd"/><path fill="#000000" d="m325.72913 236.14789l0 -6.65625l-1.140625 0l0 -1.015625l1.140625 0l0 -0.8125q0 -0.765625 0.140625 -1.140625q0.1875 -0.515625 0.65625 -0.828125q0.484375 -0.3125 1.328125 -0.3125q0.546875 0 1.21875 0.140625l-0.203125 1.125q-0.40625 -0.0625 -0.765625 -0.0625q-0.59375 0 -0.84375 0.25q-0.234375 0.25 -0.234375 0.9375l0 0.703125l1.5 0l0 1.015625l-1.5 0l0 6.65625l-1.296875 0zm3.778595 0l0 -10.578125l1.296875 0l0 10.578125l-1.296875 0zm8.29953 -0.953125q-0.71875 0.625 -1.390625 0.875q-0.65625 0.25 -1.421875 0.25q-1.265625 0 -1.953125 -0.609375q-0.671875 -0.625 -0.671875 -1.578125q0 -0.5625 0.25 -1.03125q0.265625 -0.46875 0.671875 -0.75q0.421875 -0.28125 0.9375 -0.421875q0.390625 -0.109375 1.15625 -0.203125q1.578125 -0.1875 2.328125 -0.4375q0 -0.265625 0 -0.34375q0 -0.796875 -0.375 -1.125q-0.484375 -0.4375 -1.46875 -0.4375q-0.921875 0 -1.359375 0.328125q-0.4375 0.3125 -0.640625 1.125l-1.265625 -0.171875q0.171875 -0.8125 0.5625 -1.3125q0.390625 -0.5 1.140625 -0.765625q0.75 -0.28125 1.75 -0.28125q0.984375 0 1.59375 0.234375q0.609375 0.234375 0.890625 0.59375q0.296875 0.34375 0.40625 0.875q0.078125 0.328125 0.078125 1.203125l0 1.71875q0 1.8125 0.078125 2.296875q0.078125 0.484375 0.328125 0.921875l-1.359375 0q-0.203125 -0.40625 -0.265625 -0.953125zm-0.09375 -2.890625q-0.71875 0.28125 -2.125 0.484375q-0.8125 0.125 -1.140625 0.265625q-0.328125 0.140625 -0.515625 0.421875q-0.171875 0.28125 -0.171875 0.609375q0 0.53125 0.390625 0.875q0.390625 0.34375 1.15625 0.34375q0.75 0 1.328125 -0.328125q0.59375 -0.328125 0.859375 -0.90625q0.21875 -0.4375 0.21875 -1.296875l0 -0.46875zm3.080017 4.484375l1.265625 0.1875q0.078125 0.578125 0.4375 0.84375q0.484375 0.359375 1.328125 0.359375q0.890625 0 1.375 -0.359375q0.5 -0.359375 0.671875 -1.015625q0.109375 -0.390625 0.09375 -1.65625q-0.84375 1.0 -2.109375 1.0q-1.59375 0 -2.46875 -1.140625q-0.859375 -1.140625 -0.859375 -2.734375q0 -1.09375 0.390625 -2.015625q0.40625 -0.9375 1.15625 -1.4375q0.765625 -0.515625 1.78125 -0.515625q1.359375 0 2.234375 1.109375l0 -0.9375l1.203125 0l0 6.625q0 1.796875 -0.375 2.546875q-0.359375 0.75 -1.15625 1.171875q-0.78125 0.4375 -1.9375 0.4375q-1.375 0 -2.21875 -0.625q-0.84375 -0.609375 -0.8125 -1.84375zm1.078125 -4.609375q0 1.5 0.59375 2.203125q0.609375 0.6875 1.5 0.6875q0.90625 0 1.5 -0.6875q0.609375 -0.6875 0.609375 -2.15625q0 -1.40625 -0.625 -2.125q-0.625 -0.71875 -1.5 -0.71875q-0.859375 0 -1.46875 0.703125q-0.609375 0.703125 -0.609375 2.09375zm6.8612366 1.6875l1.28125 -0.203125q0.109375 0.765625 0.609375 1.1875q0.5 0.40625 1.375 0.40625q0.90625 0 1.328125 -0.359375q0.4375 -0.375 0.4375 -0.859375q0 -0.453125 -0.375 -0.703125q-0.28125 -0.171875 -1.328125 -0.4375q-1.4375 -0.359375 -2.0 -0.625q-0.546875 -0.265625 -0.828125 -0.71875q-0.28125 -0.46875 -0.28125 -1.03125q0 -0.515625 0.234375 -0.953125q0.234375 -0.4375 0.640625 -0.71875q0.296875 -0.234375 0.8125 -0.390625q0.53125 -0.15625 1.140625 -0.15625q0.890625 0 1.578125 0.265625q0.6875 0.265625 1.0 0.703125q0.328125 0.4375 0.453125 1.1875l-1.265625 0.171875q-0.09375 -0.59375 -0.515625 -0.921875q-0.40625 -0.328125 -1.15625 -0.328125q-0.90625 0 -1.296875 0.296875q-0.375 0.296875 -0.375 0.6875q0 0.25 0.15625 0.453125q0.171875 0.21875 0.5 0.34375q0.203125 0.078125 1.15625 0.34375q1.375 0.359375 1.921875 0.59375q0.546875 0.234375 0.859375 0.6875q0.3125 0.4375 0.3125 1.109375q0 0.640625 -0.390625 1.21875q-0.375 0.578125 -1.09375 0.890625q-0.703125 0.3125 -1.609375 0.3125q-1.5 0 -2.28125 -0.609375q-0.78125 -0.625 -1.0 -1.84375z" fill-rule="nonzero"/><path fill="#ffffff" d="m366.99954 212.22572l53.88974 0l0 37.448822l-53.88974 0z" fill-rule="evenodd"/><path stroke="#000000" stroke-width="1.110236220472441" stroke-linejoin="round" stroke-linecap="butt" d="m366.99954 212.22572l53.88974 0l0 37.448822l-53.88974 0z" fill-rule="evenodd"/><path fill="#000000" d="m382.99722 239.08539l0 -10.609375l1.1875 0l0 1.0q0.421875 -0.578125 0.9375 -0.875q0.53125 -0.296875 1.28125 -0.296875q0.984375 0 1.734375 0.515625q0.75 0.5 1.125 1.421875q0.390625 0.921875 0.390625 2.015625q0 1.171875 -0.421875 2.125q-0.421875 0.9375 -1.234375 1.4375q-0.796875 0.5 -1.6875 0.5q-0.640625 0 -1.15625 -0.265625q-0.515625 -0.28125 -0.84375 -0.703125l0 3.734375l-1.3125 0zm1.1875 -6.734375q0 1.484375 0.59375 2.203125q0.59375 0.703125 1.453125 0.703125q0.859375 0 1.46875 -0.734375q0.625 -0.734375 0.625 -2.265625q0 -1.46875 -0.609375 -2.203125q-0.59375 -0.734375 -1.421875 -0.734375q-0.84375 0 -1.484375 0.78125q-0.625 0.78125 -0.625 2.25zm6.5487366 -0.03125q0 -2.140625 1.1875 -3.15625q0.984375 -0.859375 2.40625 -0.859375q1.59375 0 2.59375 1.046875q1.0 1.03125 1.0 2.859375q0 1.46875 -0.453125 2.328125q-0.4375 0.84375 -1.28125 1.3125q-0.84375 0.46875 -1.859375 0.46875q-1.609375 0 -2.609375 -1.03125q-0.984375 -1.03125 -0.984375 -2.96875zm1.34375 0q0 1.46875 0.640625 2.203125q0.640625 0.734375 1.609375 0.734375q0.96875 0 1.609375 -0.734375q0.65625 -0.75 0.65625 -2.25q0 -1.421875 -0.65625 -2.15625q-0.640625 -0.734375 -1.609375 -0.734375q-0.96875 0 -1.609375 0.734375q-0.640625 0.71875 -0.640625 2.203125zm6.845642 1.546875l1.28125 -0.203125q0.109375 0.765625 0.609375 1.1875q0.5 0.40625 1.375 0.40625q0.90625 0 1.328125 -0.359375q0.4375 -0.375 0.4375 -0.859375q0 -0.453125 -0.375 -0.703125q-0.28125 -0.171875 -1.328125 -0.4375q-1.4375 -0.359375 -2.0 -0.625q-0.546875 -0.265625 -0.828125 -0.71875q-0.28125 -0.46875 -0.28125 -1.03125q0 -0.515625 0.234375 -0.953125q0.234375 -0.4375 0.640625 -0.71875q0.296875 -0.234375 0.8125 -0.390625q0.53125 -0.15625 1.140625 -0.15625q0.890625 0 1.578125 0.265625q0.6875 0.265625 1.0 0.703125q0.328125 0.4375 0.453125 1.1875l-1.265625 0.171875q-0.09375 -0.59375 -0.515625 -0.921875q-0.40625 -0.328125 -1.15625 -0.328125q-0.90625 0 -1.296875 0.296875q-0.375 0.296875 -0.375 0.6875q0 0.25 0.15625 0.453125q0.171875 0.21875 0.5 0.34375q0.203125 0.078125 1.15625 0.34375q1.375 0.359375 1.921875 0.59375q0.546875 0.234375 0.859375 0.6875q0.3125 0.4375 0.3125 1.109375q0 0.640625 -0.390625 1.21875q-0.375 0.578125 -1.09375 0.890625q-0.703125 0.3125 -1.609375 0.3125q-1.5 0 -2.28125 -0.609375q-0.78125 -0.625 -1.0 -1.84375z" fill-rule="nonzero"/><path fill="#ffffff" d="m420.88464 212.22572l62.582672 0l0 37.448822l-62.582672 0z" fill-rule="evenodd"/><path stroke="#000000" stroke-width="1.110236220472441" stroke-linejoin="round" stroke-linecap="butt" d="m420.88464 212.22572l62.582672 0l0 37.448822l-62.582672 0z" fill-rule="evenodd"/><path fill="#000000" d="m436.32214 236.14789l0 -10.578125l1.296875 0l0 6.03125l3.078125 -3.125l1.671875 0l-2.921875 2.84375l3.21875 4.828125l-1.59375 0l-2.53125 -3.921875l-0.921875 0.890625l0 3.03125l-1.296875 0zm6.859375 -2.28125l1.28125 -0.203125q0.109375 0.765625 0.609375 1.1875q0.5 0.40625 1.375 0.40625q0.90625 0 1.328125 -0.359375q0.4375 -0.375 0.4375 -0.859375q0 -0.453125 -0.375 -0.703125q-0.28125 -0.171875 -1.328125 -0.4375q-1.4375 -0.359375 -2.0 -0.625q-0.546875 -0.265625 -0.828125 -0.71875q-0.28125 -0.46875 -0.28125 -1.03125q0 -0.515625 0.234375 -0.953125q0.234375 -0.4375 0.640625 -0.71875q0.296875 -0.234375 0.8125 -0.390625q0.53125 -0.15625 1.140625 -0.15625q0.890625 0 1.578125 0.265625q0.6875 0.265625 1.0 0.703125q0.328125 0.4375 0.453125 1.1875l-1.265625 0.171875q-0.09375 -0.59375 -0.515625 -0.921875q-0.40625 -0.328125 -1.15625 -0.328125q-0.90625 0 -1.296875 0.296875q-0.375 0.296875 -0.375 0.6875q0 0.25 0.15625 0.453125q0.171875 0.21875 0.5 0.34375q0.203125 0.078125 1.15625 0.34375q1.375 0.359375 1.921875 0.59375q0.546875 0.234375 0.859375 0.6875q0.3125 0.4375 0.3125 1.109375q0 0.640625 -0.390625 1.21875q-0.375 0.578125 -1.09375 0.890625q-0.703125 0.3125 -1.609375 0.3125q-1.5 0 -2.28125 -0.609375q-0.78125 -0.625 -1.0 -1.84375zm7.921875 -6.8125l0 -1.484375l1.296875 0l0 1.484375l-1.296875 0zm0 9.09375l0 -7.671875l1.296875 0l0 7.671875l-1.296875 0zm2.58078 0l0 -1.046875l4.890625 -5.609375q-0.828125 0.046875 -1.46875 0.046875l-3.125 0l0 -1.0625l6.265625 0l0 0.859375l-4.15625 4.875l-0.796875 0.890625q0.875 -0.078125 1.640625 -0.078125l3.546875 0l0 1.125l-6.796875 0zm13.328125 -2.46875l1.34375 0.171875q-0.3125 1.171875 -1.171875 1.828125q-0.859375 0.640625 -2.203125 0.640625q-1.671875 0 -2.65625 -1.03125q-0.984375 -1.03125 -0.984375 -2.90625q0 -1.9375 0.984375 -3.0q1.0 -1.078125 2.59375 -1.078125q1.53125 0 2.5 1.046875q0.984375 1.046875 0.984375 2.953125q0 0.109375 -0.015625 0.34375l-5.703125 0q0.0625 1.265625 0.703125 1.9375q0.640625 0.671875 1.609375 0.671875q0.71875 0 1.21875 -0.375q0.5 -0.375 0.796875 -1.203125zm-4.265625 -2.09375l4.28125 0q-0.078125 -0.96875 -0.484375 -1.453125q-0.625 -0.75 -1.609375 -0.75q-0.90625 0 -1.515625 0.59375q-0.609375 0.59375 -0.671875 1.609375z" fill-rule="nonzero"/><path fill="#ffffff" d="m483.4592 212.22572l62.582672 0l0 37.448822l-62.582672 0z" fill-rule="evenodd"/><path stroke="#000000" stroke-width="1.110236220472441" stroke-linejoin="round" stroke-linecap="butt" d="m483.4592 212.22572l62.582672 0l0 37.448822l-62.582672 0z" fill-rule="evenodd"/><path fill="#000000" d="m501.0217 236.14789l-2.921875 -7.671875l1.375 0l1.640625 4.59375q0.265625 0.75 0.5 1.546875q0.171875 -0.609375 0.46875 -1.453125l1.703125 -4.6875l1.34375 0l-2.90625 7.671875l-1.203125 0zm4.734375 -2.28125l1.28125 -0.203125q0.109375 0.765625 0.609375 1.1875q0.5 0.40625 1.375 0.40625q0.90625 0 1.328125 -0.359375q0.4375 -0.375 0.4375 -0.859375q0 -0.453125 -0.375 -0.703125q-0.28125 -0.171875 -1.328125 -0.4375q-1.4375 -0.359375 -2.0 -0.625q-0.546875 -0.265625 -0.828125 -0.71875q-0.28125 -0.46875 -0.28125 -1.03125q0 -0.515625 0.234375 -0.953125q0.234375 -0.4375 0.640625 -0.71875q0.296875 -0.234375 0.8125 -0.390625q0.53125 -0.15625 1.140625 -0.15625q0.890625 0 1.578125 0.265625q0.6875 0.265625 1.0 0.703125q0.328125 0.4375 0.453125 1.1875l-1.265625 0.171875q-0.09375 -0.59375 -0.515625 -0.921875q-0.40625 -0.328125 -1.15625 -0.328125q-0.90625 0 -1.296875 0.296875q-0.375 0.296875 -0.375 0.6875q0 0.25 0.15625 0.453125q0.171875 0.21875 0.5 0.34375q0.203125 0.078125 1.15625 0.34375q1.375 0.359375 1.921875 0.59375q0.546875 0.234375 0.859375 0.6875q0.31246948 0.4375 0.31246948 1.109375q0 0.640625 -0.39059448 1.21875q-0.375 0.578125 -1.09375 0.890625q-0.703125 0.3125 -1.609375 0.3125q-1.5 0 -2.28125 -0.609375q-0.78125 -0.625 -1.0 -1.84375zm7.9218445 -6.8125l0 -1.484375l1.296875 0l0 1.484375l-1.296875 0zm0 9.09375l0 -7.671875l1.296875 0l0 7.671875l-1.296875 0zm2.5808105 0l0 -1.046875l4.890625 -5.609375q-0.828125 0.046875 -1.46875 0.046875l-3.125 0l0 -1.0625l6.265625 0l0 0.859375l-4.15625 4.875l-0.796875 0.890625q0.875 -0.078125 1.640625 -0.078125l3.546875 0l0 1.125l-6.796875 0zm13.328125 -2.46875l1.34375 0.171875q-0.3125 1.171875 -1.171875 1.828125q-0.859375 0.640625 -2.203125 0.640625q-1.671875 0 -2.65625 -1.03125q-0.984375 -1.03125 -0.984375 -2.90625q0 -1.9375 0.984375 -3.0q1.0 -1.078125 2.59375 -1.078125q1.53125 0 2.5 1.046875q0.984375 1.046875 0.984375 2.953125q0 0.109375 -0.015625 0.34375l-5.703125 0q0.0625 1.265625 0.703125 1.9375q0.640625 0.671875 1.609375 0.671875q0.71875 0 1.21875 -0.375q0.5 -0.375 0.796875 -1.203125zm-4.265625 -2.09375l4.28125 0q-0.078125 -0.96875 -0.484375 -1.453125q-0.625 -0.75 -1.609375 -0.75q-0.90625 0 -1.515625 0.59375q-0.609375 0.59375 -0.671875 1.609375z" fill-rule="nonzero"/><path fill="#ffffff" d="m544.7348 212.22572l62.58264 0l0 37.448822l-62.58264 0z" fill-rule="evenodd"/><path stroke="#000000" stroke-width="1.110236220472441" stroke-linejoin="round" stroke-linecap="butt" d="m544.7348 212.22572l62.58264 0l0 37.448822l-62.58264 0z" fill-rule="evenodd"/><path fill="#000000" d="m570.35425 236.14789l0 -1.484375l1.484375 0l0 1.484375l-1.484375 0zm4.9375 0l0 -1.484375l1.484375 0l0 1.484375l-1.484375 0zm4.921875 0l0 -1.484375l1.484375 0l0 1.484375l-1.484375 0z" fill-rule="nonzero"/><path fill="#ffffff" d="m607.31744 212.22572l62.582703 0l0 37.448822l-62.582703 0z" fill-rule="evenodd"/><path stroke="#000000" stroke-width="1.110236220472441" stroke-linejoin="round" stroke-linecap="butt" d="m607.31744 212.22572l62.582703 0l0 37.448822l-62.582703 0z" fill-rule="evenodd"/><path fill="#000000" d="m628.0922 236.14789l0 -10.578125l1.296875 0l0 6.03125l3.078125 -3.125l1.671875 0l-2.921875 2.84375l3.21875 4.828125l-1.59375 0l-2.53125 -3.921875l-0.921875 0.890625l0 3.03125l-1.296875 0zm12.625 -2.46875l1.34375 0.171875q-0.3125 1.171875 -1.171875 1.828125q-0.859375 0.640625 -2.203125 0.640625q-1.671875 0 -2.65625 -1.03125q-0.984375 -1.03125 -0.984375 -2.90625q0 -1.9375 0.984375 -3.0q1.0 -1.078125 2.59375 -1.078125q1.53125 0 2.5 1.046875q0.984375 1.046875 0.984375 2.953125q0 0.109375 -0.015625 0.34375l-5.703125 0q0.0625 1.265625 0.703125 1.9375q0.640625 0.671875 1.609375 0.671875q0.71875 0 1.21875 -0.375q0.5 -0.375 0.796875 -1.203125zm-4.265625 -2.09375l4.28125 0q-0.078125 -0.96875 -0.484375 -1.453125q-0.625 -0.75 -1.609375 -0.75q-0.90625 0 -1.515625 0.59375q-0.609375 0.59375 -0.671875 1.609375zm7.189392 7.515625l-0.15625 -1.21875q0.4375 0.109375 0.75 0.109375q0.4375 0 0.6875 -0.140625q0.265625 -0.140625 0.4375 -0.40625q0.109375 -0.1875 0.390625 -0.96875q0.03125 -0.109375 0.109375 -0.3125l-2.90625 -7.6875l1.40625 0l1.59375 4.453125q0.3125 0.84375 0.5625 1.765625q0.21875 -0.890625 0.53125 -1.75l1.640625 -4.46875l1.296875 0l-2.921875 7.796875q-0.46875 1.265625 -0.734375 1.75q-0.34375 0.640625 -0.796875 0.9375q-0.4375 0.296875 -1.0625 0.296875q-0.375 0 -0.828125 -0.15625z" fill-rule="nonzero"/><path fill="#ffffff" d="m668.58514 212.22572l62.582703 0l0 37.448822l-62.582703 0z" fill-rule="evenodd"/><path stroke="#000000" stroke-width="1.110236220472441" stroke-linejoin="round" stroke-linecap="butt" d="m668.58514 212.22572l62.582703 0l0 37.448822l-62.582703 0z" fill-rule="evenodd"/><path fill="#000000" d="m693.53827 236.14789l-2.921875 -7.671875l1.375 0l1.640625 4.59375q0.265625 0.75 0.5 1.546875q0.171875 -0.609375 0.46875 -1.453125l1.703125 -4.6875l1.34375 0l-2.90625 7.671875l-1.203125 0zm10.25 -0.953125q-0.71875 0.625 -1.390625 0.875q-0.65625 0.25 -1.421875 0.25q-1.265625 0 -1.953125 -0.609375q-0.671875 -0.625 -0.671875 -1.578125q0 -0.5625 0.25 -1.03125q0.265625 -0.46875 0.671875 -0.75q0.421875 -0.28125 0.9375 -0.421875q0.390625 -0.109375 1.15625 -0.203125q1.578125 -0.1875 2.328125 -0.4375q0 -0.265625 0 -0.34375q0 -0.796875 -0.375 -1.125q-0.484375 -0.4375 -1.46875 -0.4375q-0.921875 0 -1.359375 0.328125q-0.4375 0.3125 -0.640625 1.125l-1.265625 -0.171875q0.171875 -0.8125 0.5625 -1.3125q0.390625 -0.5 1.140625 -0.765625q0.75 -0.28125 1.75 -0.28125q0.984375 0 1.59375 0.234375q0.609375 0.234375 0.890625 0.59375q0.296875 0.34375 0.40625 0.875q0.078125 0.328125 0.078125 1.203125l0 1.71875q0 1.8125 0.078125 2.296875q0.078125 0.484375 0.328125 0.921875l-1.359375 0q-0.203125 -0.40625 -0.265625 -0.953125zm-0.09375 -2.890625q-0.71875 0.28125 -2.125 0.484375q-0.8125 0.125 -1.140625 0.265625q-0.328125 0.140625 -0.515625 0.421875q-0.171875 0.28125 -0.171875 0.609375q0 0.53125 0.390625 0.875q0.390625 0.34375 1.15625 0.34375q0.75 0 1.328125 -0.328125q0.59375 -0.328125 0.859375 -0.90625q0.21875 -0.4375 0.21875 -1.296875l0 -0.46875zm3.298767 3.84375l0 -10.578125l1.296875 0l0 10.578125l-1.296875 0z" fill-rule="nonzero"/><path fill="#ffffff" d="m731.1757 212.22572l62.582703 0l0 37.448822l-62.582703 0z" fill-rule="evenodd"/><path stroke="#000000" stroke-width="1.110236220472441" stroke-linejoin="round" stroke-linecap="butt" d="m731.1757 212.22572l62.582703 0l0 37.448822l-62.582703 0z" fill-rule="evenodd"/><path fill="#000000" d="m751.9505 236.14789l0 -10.578125l1.296875 0l0 6.03125l3.078125 -3.125l1.671875 0l-2.921875 2.84375l3.21875 4.828125l-1.59375 0l-2.53125 -3.921875l-0.921875 0.890625l0 3.03125l-1.296875 0zm12.625 -2.46875l1.34375 0.171875q-0.3125 1.171875 -1.171875 1.828125q-0.859375 0.640625 -2.203125 0.640625q-1.671875 0 -2.65625 -1.03125q-0.984375 -1.03125 -0.984375 -2.90625q0 -1.9375 0.984375 -3.0q1.0 -1.078125 2.59375 -1.078125q1.53125 0 2.5 1.046875q0.984375 1.046875 0.984375 2.953125q0 0.109375 -0.015625 0.34375l-5.703125 0q0.0625 1.265625 0.703125 1.9375q0.640625 0.671875 1.609375 0.671875q0.71875 0 1.21875 -0.375q0.5 -0.375 0.796875 -1.203125zm-4.265625 -2.09375l4.28125 0q-0.078125 -0.96875 -0.484375 -1.453125q-0.625 -0.75 -1.609375 -0.75q-0.90625 0 -1.515625 0.59375q-0.609375 0.59375 -0.671875 1.609375zm7.189392 7.515625l-0.15625 -1.21875q0.4375 0.109375 0.75 0.109375q0.4375 0 0.6875 -0.140625q0.265625 -0.140625 0.4375 -0.40625q0.109375 -0.1875 0.390625 -0.96875q0.03125 -0.109375 0.109375 -0.3125l-2.90625 -7.6875l1.40625 0l1.59375 4.453125q0.3125 0.84375 0.5625 1.765625q0.21875 -0.890625 0.53125 -1.75l1.640625 -4.46875l1.296875 0l-2.921875 7.796875q-0.46875 1.265625 -0.734375 1.75q-0.34375 0.640625 -0.796875 0.9375q-0.4375 0.296875 -1.0625 0.296875q-0.375 0 -0.828125 -0.15625z" fill-rule="nonzero"/><path fill="#ffffff" d="m792.4434 212.22572l62.582703 0l0 37.448822l-62.582703 0z" fill-rule="evenodd"/><path stroke="#000000" stroke-width="1.110236220472441" stroke-linejoin="round" stroke-linecap="butt" d="m792.4434 212.22572l62.582703 0l0 37.448822l-62.582703 0z" fill-rule="evenodd"/><path fill="#000000" d="m817.39655 236.14789l-2.921875 -7.671875l1.375 0l1.640625 4.59375q0.265625 0.75 0.5 1.546875q0.171875 -0.609375 0.46875 -1.453125l1.703125 -4.6875l1.34375 0l-2.90625 7.671875l-1.203125 0zm10.25 -0.953125q-0.71875 0.625 -1.390625 0.875q-0.65625 0.25 -1.421875 0.25q-1.265625 0 -1.953125 -0.609375q-0.671875 -0.625 -0.671875 -1.578125q0 -0.5625 0.25 -1.03125q0.265625 -0.46875 0.671875 -0.75q0.421875 -0.28125 0.9375 -0.421875q0.390625 -0.109375 1.15625 -0.203125q1.578125 -0.1875 2.328125 -0.4375q0 -0.265625 0 -0.34375q0 -0.796875 -0.375 -1.125q-0.484375 -0.4375 -1.46875 -0.4375q-0.921875 0 -1.359375 0.328125q-0.4375 0.3125 -0.640625 1.125l-1.265625 -0.171875q0.171875 -0.8125 0.5625 -1.3125q0.390625 -0.5 1.140625 -0.765625q0.75 -0.28125 1.75 -0.28125q0.984375 0 1.59375 0.234375q0.609375 0.234375 0.890625 0.59375q0.296875 0.34375 0.40625 0.875q0.078125 0.328125 0.078125 1.203125l0 1.71875q0 1.8125 0.078125 2.296875q0.078125 0.484375 0.328125 0.921875l-1.359375 0q-0.203125 -0.40625 -0.265625 -0.953125zm-0.09375 -2.890625q-0.71875 0.28125 -2.125 0.484375q-0.8125 0.125 -1.140625 0.265625q-0.328125 0.140625 -0.515625 0.421875q-0.171875 0.28125 -0.171875 0.609375q0 0.53125 0.390625 0.875q0.390625 0.34375 1.15625 0.34375q0.75 0 1.328125 -0.328125q0.59375 -0.328125 0.859375 -0.90625q0.21875 -0.4375 0.21875 -1.296875l0 -0.46875zm3.298767 3.84375l0 -10.578125l1.296875 0l0 10.578125l-1.296875 0z" fill-rule="nonzero"/><path fill="#ffffff" d="m855.0342 212.22572l93.44879 0l0 37.448822l-93.44879 0z" fill-rule="evenodd"/><path stroke="#000000" stroke-width="1.110236220472441" stroke-linejoin="round" stroke-linecap="butt" d="m855.0342 212.22572l93.44879 0l0 37.448822l-93.44879 0z" fill-rule="evenodd"/><path fill="#000000" d="m896.08673 236.14789l0 -1.484375l1.484375 0l0 1.484375l-1.484375 0zm4.9375 0l0 -1.484375l1.484375 0l0 1.484375l-1.484375 0zm4.921875 0l0 -1.484375l1.484375 0l0 1.484375l-1.484375 0z" fill-rule="nonzero"/><path fill="#000000" fill-opacity="0.0" d="m586.76117 148.26772l-501.60632 61.007874" fill-rule="evenodd"/><path stroke="#000000" stroke-width="1.0" stroke-linejoin="round" stroke-linecap="butt" stroke-dasharray="4.0,3.0,1.0,3.0" d="m586.76117 148.26772l-501.60632 61.007874" fill-rule="evenodd"/><path fill="#000000" fill-opacity="0.0" d="m949.5539 145.12335l-1.0709229 85.82678" fill-rule="evenodd"/><path stroke="#000000" stroke-width="1.0" stroke-linejoin="round" stroke-linecap="butt" stroke-dasharray="4.0,3.0,1.0,3.0" d="m949.5539 145.12335l-1.0709229 85.82678" fill-rule="evenodd"/></g></svg>